<?xml version="1.0" standalone="no"?>
<!DOCTYPE svg PUBLIC "-//W3C//DTD SVG 20010904//EN"
 "http://www.w3.org/TR/2001/REC-SVG-20010904/DTD/svg10.dtd">
<svg version="1.0" xmlns="http://www.w3.org/2000/svg"
 width="512.000000pt" height="512.000000pt" viewBox="0 0 512.000000 512.000000"
 preserveAspectRatio="xMidYMid meet">

<g transform="translate(0.000000,512.000000) scale(0.100000,-0.100000)"
fill="#000000" stroke="none">
<path d="M532 4151 c-85 -30 -152 -83 -309 -245 -162 -167 -193 -215 -214
-329 -16 -85 -2 -182 37 -260 21 -42 243 -269 1132 -1160 609 -609 1130 -1123
1157 -1141 71 -47 136 -66 225 -66 88 0 153 19 225 66 28 17 547 529 1157
1140 891 893 1111 1119 1132 1161 58 116 57 262 -2 383 -37 75 -344 387 -417
422 -121 60 -258 64 -375 13 -61 -27 -110 -73 -892 -854 l-828 -826 -827 826
c-781 779 -832 827 -893 854 -85 38 -225 45 -308 16z"/>
</g>
</svg>
