<?xml version="1.0" standalone="no"?>
<!DOCTYPE svg PUBLIC "-//W3C//DTD SVG 20010904//EN"
 "http://www.w3.org/TR/2001/REC-SVG-20010904/DTD/svg10.dtd">
<svg version="1.0" xmlns="http://www.w3.org/2000/svg"
 width="1773.000000pt" height="1773.000000pt" viewBox="0 0 1773.000000 1773.000000"
 preserveAspectRatio="xMidYMid meet">

<g transform="translate(0.000000,1773.000000) scale(0.100000,-0.100000)"
fill="#000000" stroke="none">
<path d="M7640 16725 c0 -16 27 -20 48 -6 10 6 8 10 -10 14 -34 10 -38 9 -38
-8z"/>
<path d="M7770 16730 c0 -5 7 -7 15 -4 8 4 15 8 15 10 0 2 -7 4 -15 4 -8 0
-15 -4 -15 -10z"/>
<path d="M8685 16720 c145 -10 215 -19 227 -26 17 -11 338 -13 338 -3 0 5 -30
9 -66 9 -36 0 -73 4 -82 9 -9 5 -132 11 -272 14 -168 3 -218 2 -145 -3z"/>
<path d="M9860 16550 c28 -22 46 -25 55 -11 7 13 -27 31 -57 31 l-23 0 25 -20z"/>
<path d="M10150 16426 c0 -2 9 -6 20 -9 11 -3 20 -1 20 4 0 5 -9 9 -20 9 -11
0 -20 -2 -20 -4z"/>
<path d="M10221 16414 c9 -8 35 -18 58 -21 37 -5 41 -4 41 16 0 19 -5 21 -57
21 -52 0 -56 -1 -42 -16z"/>
<path d="M6824 16335 c-3 -8 -4 -19 -2 -24 4 -13 50 9 56 27 6 18 -47 15 -54
-3z"/>
<path d="M6690 16200 c0 -11 4 -20 8 -20 5 0 17 9 27 20 18 20 17 20 -8 20
-20 0 -27 -5 -27 -20z"/>
<path d="M6550 16074 c0 -14 3 -15 18 -3 9 7 19 15 21 16 2 2 -5 3 -17 3 -14
0 -22 -6 -22 -16z"/>
<path d="M6410 15923 l1 -38 24 30 c31 38 31 45 0 45 -22 0 -25 -4 -25 -37z"/>
<path d="M6342 15800 c0 -14 2 -19 5 -12 2 6 2 18 0 25 -3 6 -5 1 -5 -13z"/>
<path d="M6295 15759 c-10 -15 3 -25 16 -12 7 7 7 13 1 17 -6 3 -14 1 -17 -5z"/>
<path d="M6141 15533 c1 -17 3 -21 6 -10 2 9 9 17 14 17 5 0 9 5 9 10 0 6 -7
10 -15 10 -10 0 -15 -9 -14 -27z"/>
<path d="M10236 15521 c-4 -7 -5 -15 -2 -18 9 -9 19 4 14 18 -4 11 -6 11 -12
0z"/>
<path d="M11850 15082 c0 -6 7 -12 15 -16 8 -3 15 -12 15 -21 0 -8 5 -15 11
-15 6 0 9 12 7 28 -2 19 -9 28 -25 30 -13 2 -23 -1 -23 -6z"/>
<path d="M5867 15013 c-4 -3 -7 -18 -7 -32 l0 -26 15 29 c8 15 15 30 15 32 0
6 -16 5 -23 -3z"/>
<path d="M6600 14967 c0 -18 5 -27 15 -27 13 0 14 4 4 23 -17 33 -19 33 -19 4z"/>
<path d="M6680 14850 c0 -5 5 -10 10 -10 6 0 10 5 10 10 0 6 -4 10 -10 10 -5
0 -10 -4 -10 -10z"/>
<path d="M5720 14815 c0 -9 6 -12 15 -9 8 4 15 10 15 15 0 5 -7 9 -15 9 -8 0
-15 -7 -15 -15z"/>
<path d="M5580 14608 c0 -12 1 -19 3 -17 1 2 9 12 16 22 12 14 11 17 -3 17
-10 0 -16 -8 -16 -22z"/>
<path d="M10312 14580 c0 -14 2 -19 5 -12 2 6 2 18 0 25 -3 6 -5 1 -5 -13z"/>
<path d="M9590 14540 c0 -5 5 -10 11 -10 5 0 7 5 4 10 -3 6 -8 10 -11 10 -2 0
-4 -4 -4 -10z"/>
<path d="M5960 14510 c0 -6 7 -10 15 -10 8 0 15 2 15 4 0 2 -7 6 -15 10 -8 3
-15 1 -15 -4z"/>
<path d="M9654 14420 c-33 -5 -81 -18 -105 -29 -24 -11 -66 -22 -94 -23 l-50
-3 -3 -53 c-2 -42 3 -65 27 -115 28 -59 35 -82 32 -117 -1 -10 -6 -8 -17 8 -9
13 -26 22 -42 22 -38 0 -48 10 -56 52 -10 57 -44 125 -73 147 -16 13 -40 21
-64 21 -21 0 -72 7 -113 16 -72 16 -76 16 -103 -1 l-28 -19 61 -18 c68 -20
163 -73 198 -111 12 -13 27 -26 32 -28 20 -9 86 -123 91 -158 11 -79 -46 -75
-197 17 -41 25 -84 53 -95 62 -11 9 -41 29 -67 44 -26 14 -52 35 -58 45 -13
26 -99 81 -124 81 -12 0 -34 7 -51 16 -37 20 -116 20 -147 0 -13 -8 -54 -18
-93 -21 -38 -4 -82 -14 -97 -21 -31 -16 -88 -19 -294 -14 -77 1 -150 0 -161
-4 -28 -9 -38 -56 -11 -56 32 0 78 -29 78 -49 0 -24 -17 -38 -66 -54 -24 -9
-50 -29 -69 -54 -16 -22 -50 -53 -75 -69 -39 -26 -45 -34 -43 -61 2 -23 -3
-37 -20 -50 -13 -10 -52 -60 -87 -111 -67 -98 -129 -176 -178 -227 -42 -44
-72 -98 -72 -131 1 -16 13 -47 28 -69 23 -33 36 -41 72 -47 58 -10 80 -38 77
-98 0 -25 2 -57 7 -73 7 -24 5 -28 -22 -38 -20 -7 -32 -19 -37 -36 -6 -26
-187 -213 -206 -213 -5 0 -31 -20 -57 -44 -26 -24 -63 -51 -82 -61 -47 -24
-167 -152 -178 -190 -5 -16 -21 -48 -36 -69 -49 -72 -26 -206 41 -238 33 -16
44 -67 19 -88 -9 -7 -16 -23 -16 -37 0 -37 -27 -93 -45 -93 -24 0 -69 -34
-105 -80 -28 -36 -32 -48 -31 -100 1 -79 33 -150 67 -150 59 0 167 84 178 137
3 15 8 92 12 171 6 135 8 144 34 181 37 50 78 78 115 77 25 -1 32 -7 42 -36 6
-19 12 -52 12 -73 1 -21 8 -51 16 -66 41 -80 26 -196 -36 -267 -21 -25 -39
-49 -39 -54 0 -5 -6 -15 -13 -22 -7 -7 -21 -32 -31 -55 -11 -24 -22 -43 -27
-43 -4 0 -10 -13 -14 -30 -3 -16 -14 -39 -24 -52 -10 -13 -23 -39 -30 -59 -6
-20 -21 -45 -31 -54 -11 -10 -20 -24 -20 -31 0 -7 -9 -18 -19 -24 -11 -5 -22
-24 -26 -42 -4 -18 -13 -42 -19 -53 -7 -11 -15 -41 -18 -66 -3 -30 -17 -63
-38 -94 -18 -26 -33 -60 -32 -74 1 -76 12 -218 18 -243 9 -42 25 -22 35 44 5
29 15 67 23 83 46 99 64 144 70 171 4 18 17 37 31 44 13 7 31 29 39 49 19 48
35 60 68 54 44 -8 45 -38 5 -96 -20 -29 -39 -65 -43 -82 -4 -16 -14 -38 -23
-49 -16 -18 -58 -128 -68 -179 -4 -19 2 -44 17 -75 28 -54 34 -177 12 -229
-17 -39 -57 -51 -100 -29 -30 16 -62 69 -62 104 0 23 -39 37 -46 17 -3 -8 -3
-18 0 -23 8 -13 -22 -110 -45 -148 -10 -17 -22 -53 -25 -80 -3 -27 -12 -62
-19 -79 -7 -16 -18 -70 -24 -120 -7 -49 -21 -127 -31 -173 -11 -46 -20 -96
-20 -111 0 -14 -7 -36 -15 -48 -8 -12 -21 -50 -29 -85 -22 -95 -51 -168 -73
-183 -32 -23 -47 -69 -34 -106 14 -42 14 -185 -1 -266 -10 -54 -16 -67 -39
-78 -31 -16 -40 -10 -59 40 -8 20 -8 43 -1 74 6 25 15 82 21 125 6 44 16 87
24 95 25 29 29 61 11 81 -14 16 -16 34 -12 112 5 119 25 255 42 293 7 17 16
41 18 55 5 23 30 93 87 245 12 33 25 76 30 95 4 19 15 49 24 65 31 59 17 91
-34 73 -28 -9 -83 -102 -94 -157 -3 -18 -26 -75 -51 -126 -25 -52 -45 -101
-45 -109 0 -9 -4 -24 -9 -34 -36 -65 -63 -132 -76 -189 -16 -69 -19 -75 -77
-144 -20 -24 -45 -55 -57 -69 -22 -28 -40 -23 -74 22 -21 28 -22 13 13 248 5
36 18 76 28 90 11 14 22 46 26 73 5 31 14 50 27 57 10 6 19 16 19 22 0 6 15
43 34 82 18 39 39 88 47 108 7 21 20 40 29 43 10 3 23 23 30 45 7 22 21 47 32
56 10 10 18 25 18 34 0 9 13 34 30 56 16 21 30 45 30 51 0 7 12 20 26 30 15 9
33 33 41 52 8 19 25 49 38 65 12 17 28 49 35 71 7 22 23 64 37 94 13 30 27 67
30 82 5 26 3 29 -20 29 -14 0 -37 4 -52 10 -23 9 -28 7 -43 -20 -9 -16 -25
-30 -35 -30 -31 0 -53 -18 -86 -69 -28 -44 -32 -55 -26 -94 16 -103 -36 -293
-91 -340 -27 -23 -34 -37 -34 -64 0 -41 -15 -73 -35 -73 -14 0 -19 -12 -29
-72 -4 -20 -13 -38 -20 -41 -8 -3 -19 -23 -26 -44 -7 -21 -29 -74 -50 -118
-73 -155 -100 -215 -100 -225 0 -6 -4 -10 -9 -10 -5 0 -12 -15 -16 -32 -9 -45
-27 -90 -42 -106 -7 -7 -17 -32 -23 -55 -6 -23 -23 -69 -39 -102 -15 -33 -36
-89 -46 -125 -11 -36 -32 -87 -47 -113 -15 -26 -28 -52 -28 -57 0 -5 -16 -42
-35 -83 -28 -58 -35 -86 -35 -133 0 -42 -6 -68 -20 -89 -13 -19 -20 -47 -20
-76 0 -80 -59 -122 -104 -74 -34 36 -37 65 -20 188 12 89 13 112 2 135 -30 63
-45 19 -47 -140 -1 -91 -4 -111 -19 -126 -13 -13 -21 -41 -25 -94 -7 -83 -56
-249 -81 -274 -9 -8 -16 -23 -16 -33 0 -9 -17 -44 -38 -77 -25 -37 -45 -87
-56 -134 -10 -41 -22 -79 -26 -85 -4 -5 -11 -25 -15 -44 -4 -18 -16 -42 -26
-52 -12 -12 -23 -44 -29 -91 -7 -48 -20 -87 -39 -118 -32 -52 -49 -136 -58
-290 -7 -133 -7 -133 1 -152 5 -11 0 -24 -13 -37 l-21 -21 35 -68 c19 -38 35
-78 35 -89 0 -14 10 -25 31 -33 68 -29 158 -147 159 -211 1 -13 7 -35 15 -49
21 -36 18 -100 -5 -135 -11 -16 -20 -37 -20 -46 0 -14 -57 -101 -71 -107 -3
-1 -23 -18 -44 -36 -50 -45 -40 -60 31 -51 47 6 55 4 60 -12 4 -10 16 -38 28
-63 16 -35 21 -64 21 -130 0 -79 -16 -150 -35 -150 -7 0 -52 -95 -65 -137 -3
-13 -10 -23 -15 -23 -5 0 -14 -9 -20 -20 -13 -24 2 -91 27 -115 8 -9 18 -37
21 -62 3 -29 16 -62 34 -87 16 -23 36 -52 45 -66 9 -14 24 -34 34 -45 9 -11
32 -49 50 -85 l33 -65 0 -210 c1 -115 4 -215 8 -221 4 -5 -6 -26 -23 -45 -16
-19 -29 -41 -29 -50 0 -9 -7 -22 -15 -29 -8 -7 -15 -27 -15 -45 0 -49 40 -144
68 -163 14 -9 37 -43 52 -77 15 -33 37 -69 49 -79 11 -11 21 -25 21 -32 0 -38
79 -164 141 -224 37 -36 68 -70 70 -76 2 -6 25 -13 51 -16 46 -5 46 -5 77 42
32 49 38 89 21 134 -7 18 -17 26 -34 26 -14 0 -28 5 -31 10 -4 6 -24 22 -45
35 l-38 24 -4 138 c-2 111 -6 144 -21 166 -9 14 -17 45 -17 67 0 35 4 42 26
50 30 12 54 -1 54 -29 0 -38 23 -93 66 -157 25 -38 57 -90 70 -115 16 -32 31
-49 46 -51 14 -2 24 -11 26 -23 8 -52 14 -63 42 -75 34 -14 50 -37 50 -73 0
-13 9 -35 19 -48 10 -14 25 -45 32 -69 7 -25 18 -54 25 -65 7 -11 10 -35 7
-53 -6 -38 -31 -52 -94 -52 -21 0 -39 -4 -39 -10 0 -5 4 -10 9 -10 5 0 36 -36
69 -80 51 -67 62 -89 67 -134 7 -56 -1 -82 -36 -121 -25 -28 -15 -62 22 -70
22 -5 37 0 64 20 19 15 35 34 35 41 0 18 48 68 74 77 37 14 103 -19 191 -96
133 -118 185 -174 185 -202 0 -21 3 -26 11 -18 7 7 11 46 11 96 -1 71 2 87 18
102 17 16 19 16 29 -3 6 -10 13 -45 16 -77 3 -31 10 -66 16 -77 6 -12 16 -55
21 -97 10 -83 18 -98 43 -84 43 24 85 -13 85 -76 0 -16 10 -44 23 -62 13 -19
32 -58 42 -86 22 -61 35 -69 68 -42 33 26 157 28 178 3 8 -9 55 -36 104 -60
102 -48 120 -64 130 -113 4 -18 16 -52 26 -75 10 -22 19 -53 19 -68 0 -15 5
-30 11 -33 5 -4 14 -17 19 -30 14 -37 56 -41 97 -8 19 15 46 35 59 43 13 8 24
20 24 27 0 19 58 55 100 60 32 5 43 1 63 -19 30 -30 43 -107 34 -202 -3 -34
-3 -67 1 -72 4 -6 30 -14 57 -18 28 -4 75 -19 105 -33 88 -40 154 -75 170 -90
23 -21 80 -60 122 -83 21 -11 62 -43 90 -71 29 -28 85 -75 124 -105 68 -51
132 -115 164 -161 8 -12 26 -25 40 -28 23 -5 28 0 53 47 48 92 91 164 107 179
8 8 43 27 76 42 51 22 76 27 143 27 72 0 81 2 81 19 0 10 -9 29 -19 42 -17 22
-26 50 -22 71 0 3 25 0 54 -8 28 -7 74 -14 100 -14 27 0 57 -5 68 -11 29 -15
236 -47 387 -58 99 -8 144 -8 177 1 45 12 62 9 143 -24 30 -12 35 -11 48 6 13
19 14 19 34 1 17 -15 24 -16 43 -6 25 13 62 15 122 5 l41 -6 23 51 c12 28 33
59 46 69 13 10 29 38 35 63 14 49 66 104 106 112 18 3 40 -6 74 -29 59 -40 75
-42 92 -10 15 27 122 116 140 116 6 0 29 12 50 26 31 22 38 33 38 61 0 29 -5
36 -33 48 -19 8 -39 20 -46 29 -7 8 -35 22 -62 32 -63 23 -82 43 -73 78 12 48
96 71 247 68 103 -3 146 10 196 58 52 50 55 88 12 128 -35 32 -56 103 -49 165
10 86 96 167 307 288 193 110 181 100 231 196 l45 88 -17 35 c-9 19 -20 51
-24 70 -3 19 -13 45 -20 57 -27 44 -19 264 12 324 7 15 16 57 20 95 7 76 21
99 72 121 25 10 32 19 32 40 0 15 10 37 21 49 23 24 59 139 59 187 0 85 -89
148 -136 96 -11 -12 -26 -18 -38 -15 -30 8 -54 -11 -77 -59 -12 -25 -24 -45
-28 -45 -4 0 -13 -22 -20 -49 -7 -27 -21 -57 -32 -67 -10 -9 -19 -23 -19 -30
0 -6 -13 -38 -30 -69 -16 -31 -30 -68 -30 -81 0 -14 -6 -35 -14 -47 -8 -12
-22 -56 -30 -97 -23 -109 -35 -149 -63 -202 -33 -63 -44 -71 -71 -52 -22 15
-31 67 -13 78 14 9 23 155 11 191 -22 66 -86 51 -126 -30 -14 -29 -38 -65 -54
-80 -17 -16 -30 -34 -30 -41 0 -7 -20 -27 -44 -43 -24 -17 -53 -45 -65 -63
-11 -18 -50 -51 -86 -73 -37 -22 -85 -54 -108 -71 -81 -59 -191 -115 -261
-132 -39 -9 -92 -29 -118 -44 -34 -21 -67 -31 -129 -38 -73 -8 -98 -17 -211
-75 -74 -38 -145 -82 -169 -105 -23 -22 -45 -40 -50 -40 -12 0 -28 -66 -22
-90 3 -12 23 -30 44 -40 21 -11 40 -24 44 -30 3 -5 13 -10 21 -10 8 0 46 -27
85 -60 38 -33 78 -60 89 -60 10 0 40 18 65 40 25 22 55 45 66 51 11 5 24 21
29 34 12 31 74 58 234 101 133 36 216 67 216 81 0 5 12 14 28 21 68 31 98 55
106 88 8 31 66 108 118 156 l40 38 29 -21 c24 -17 27 -24 22 -52 -4 -17 -19
-45 -35 -62 -15 -16 -28 -34 -28 -39 0 -14 -58 -66 -75 -66 -8 0 -19 -16 -25
-37 -14 -53 -19 -58 -78 -88 -28 -14 -52 -32 -52 -40 0 -7 -13 -23 -29 -35
-17 -11 -32 -28 -35 -38 -3 -10 -22 -26 -43 -37 -20 -11 -69 -53 -109 -92 -41
-40 -79 -73 -86 -73 -7 0 -49 -36 -93 -81 -66 -66 -79 -85 -76 -107 7 -55 18
-64 69 -58 69 9 102 -14 125 -88 21 -71 21 -75 -2 -128 -22 -49 -51 -72 -101
-82 -38 -7 -58 4 -111 57 -21 21 -29 42 -36 90 l-8 62 -85 9 c-160 17 -207 13
-290 -26 -41 -19 -96 -40 -122 -46 -25 -7 -68 -25 -95 -42 -26 -16 -61 -32
-78 -34 -16 -3 -43 -16 -60 -28 -27 -21 -40 -23 -145 -22 -145 0 -168 6 -172
42 -4 37 -39 37 -49 0 -4 -15 -24 -44 -44 -65 -20 -21 -43 -52 -50 -70 -7 -17
-26 -38 -42 -46 -15 -8 -37 -24 -47 -36 -28 -31 -61 -26 -107 17 -40 36 -41
40 -43 103 -1 66 12 96 68 151 7 8 17 24 20 36 4 12 13 22 19 22 7 0 18 13 25
28 8 20 24 32 51 40 58 18 74 15 124 -23 l46 -35 38 20 c21 11 32 20 24 20
-20 0 -40 31 -41 63 0 18 -11 40 -31 59 -17 17 -35 42 -40 56 -13 34 -1 86 26
112 22 20 26 21 106 10 46 -6 146 -25 223 -42 78 -17 170 -32 206 -33 36 -1
79 -5 95 -9 41 -8 172 27 197 53 26 29 15 41 -36 41 -77 0 -198 53 -247 108
-32 36 -56 40 -122 17 -40 -13 -47 -13 -96 5 -42 16 -65 19 -117 14 -46 -5
-76 -3 -106 9 -24 8 -74 23 -113 33 -38 10 -106 37 -151 61 -44 24 -88 43 -97
43 -8 0 -55 20 -104 44 -48 24 -105 49 -127 56 -56 18 -147 67 -177 96 -14 13
-31 24 -37 24 -25 0 -112 51 -127 74 -9 13 -26 27 -39 30 -13 3 -51 24 -84 47
-101 67 -137 37 -93 -74 33 -86 41 -125 29 -157 -5 -17 -15 -30 -20 -30 -6 0
-28 18 -50 40 -54 54 -57 53 -72 -10 -4 -14 -20 -36 -37 -49 l-30 -24 -28 34
c-24 29 -27 37 -18 59 21 48 39 62 74 55 20 -4 33 -2 33 5 0 5 -12 10 -26 10
-14 0 -38 7 -52 15 -74 40 -210 67 -256 49 -20 -8 -21 -38 -2 -57 8 -7 23 -31
34 -51 11 -21 52 -70 91 -108 39 -39 81 -83 92 -99 11 -16 39 -39 60 -50 22
-11 42 -26 46 -34 3 -8 32 -28 66 -44 l60 -29 29 21 28 21 102 -24 c57 -12
126 -28 153 -34 66 -15 240 -115 338 -193 43 -35 84 -63 93 -63 8 0 23 -14 32
-31 14 -25 22 -29 45 -26 23 3 31 -1 38 -20 5 -13 9 -28 9 -32 0 -12 -96 -71
-116 -71 -41 0 -174 45 -240 81 -39 21 -80 39 -90 39 -11 0 -28 7 -38 15 -27
20 -41 -2 -18 -28 16 -18 16 -20 -1 -32 -10 -7 -22 -29 -28 -48 -5 -20 -21
-42 -37 -52 -15 -10 -35 -26 -44 -36 -10 -10 -40 -20 -73 -24 -49 -7 -59 -5
-79 14 -13 12 -30 19 -39 16 -8 -4 -29 1 -46 9 -16 9 -39 16 -50 16 -11 0 -27
7 -35 16 -17 17 -22 74 -7 90 4 5 11 21 15 35 4 20 -1 32 -22 52 -15 15 -43
42 -62 62 -19 20 -47 42 -61 50 -15 8 -42 28 -60 45 -19 17 -54 49 -79 71
-127 113 -234 227 -273 291 -12 20 -37 48 -54 63 -19 15 -33 36 -33 49 0 12
-12 33 -26 47 -28 26 -69 85 -129 189 -21 36 -50 85 -64 110 -15 25 -37 72
-50 105 -50 131 -95 226 -110 235 -11 5 -23 3 -36 -6 -25 -18 -69 -18 -105 1
-40 21 -54 76 -46 184 7 91 7 91 -83 186 -16 17 -32 46 -35 65 -3 19 -16 44
-28 57 -11 12 -42 62 -68 110 -26 49 -51 87 -56 86 -16 -4 -16 -76 1 -119 9
-23 18 -55 21 -71 9 -55 58 -189 96 -266 21 -43 38 -93 38 -110 0 -46 13 -62
38 -48 21 11 42 -2 22 -14 -16 -10 -12 -50 9 -76 10 -13 34 -53 53 -89 19 -36
39 -74 45 -85 7 -11 31 -67 54 -125 39 -97 43 -112 43 -201 1 -80 -2 -100 -17
-117 -14 -16 -25 -18 -51 -12 -38 8 -130 97 -140 134 -3 14 -24 54 -46 87 -22
34 -40 72 -40 85 0 13 -5 26 -10 29 -17 11 -47 78 -59 135 -7 30 -19 71 -26
90 -8 19 -19 55 -25 79 -7 24 -18 54 -25 65 -8 12 -18 46 -24 76 -5 30 -16 75
-24 100 -8 25 -20 68 -27 95 -7 28 -22 82 -32 120 -27 95 -35 146 -42 238 -3
42 -10 86 -16 97 -6 11 -10 39 -10 63 2 60 -16 192 -35 257 -8 30 -15 73 -15
95 0 70 -19 167 -52 265 -29 87 -32 106 -32 225 -1 124 0 132 27 179 15 27 27
57 27 68 0 10 7 30 16 43 14 22 15 38 5 137 -6 62 -16 138 -22 168 -34 184
-50 428 -42 693 5 191 3 216 -17 300 -12 51 -27 106 -32 122 -19 53 -27 319
-13 447 11 102 16 122 40 153 15 20 32 34 38 32 23 -7 50 -57 73 -138 23 -77
25 -100 24 -275 0 -105 2 -198 6 -207 8 -22 57 -22 79 -1 12 12 14 24 8 48 -9
33 -9 103 -4 366 2 127 -1 179 -13 224 -13 49 -14 74 -5 155 6 53 17 114 25
136 8 23 14 57 14 78 0 20 4 56 10 79 15 66 41 413 46 606 5 180 30 346 59
387 50 70 65 70 85 1 12 -45 12 -45 40 -31 15 8 33 29 40 47 7 18 20 41 28 50
7 9 18 35 23 59 5 23 21 65 36 94 32 67 65 78 103 35 40 -44 62 -44 101 2 40
47 89 128 89 146 0 7 15 45 34 85 18 40 41 98 50 130 9 32 23 60 30 63 7 3 22
22 32 42 11 20 27 45 36 56 10 10 34 53 55 95 20 42 51 94 68 115 51 66 132
146 148 146 9 0 28 11 44 24 46 38 141 86 196 98 28 6 63 19 78 30 39 29 195
38 233 12 29 -18 29 -18 10 -113 -4 -18 -25 -60 -48 -93 -22 -33 -51 -79 -64
-102 -13 -22 -49 -68 -81 -101 -32 -33 -62 -73 -65 -88 -4 -16 -16 -31 -29
-36 -12 -5 -47 -35 -78 -67 l-56 -59 -6 -77 c-3 -42 -12 -90 -21 -105 -8 -15
-20 -39 -26 -53 -7 -14 -18 -36 -25 -50 -8 -14 -41 -81 -75 -150 -34 -69 -65
-132 -71 -140 -5 -8 -12 -22 -15 -30 -3 -8 -11 -26 -18 -40 -7 -14 -17 -34
-23 -45 -31 -61 -53 -113 -59 -140 -4 -16 -15 -46 -25 -65 -10 -19 -30 -79
-45 -134 -30 -109 -26 -148 13 -154 27 -4 39 17 48 83 5 28 14 59 22 71 7 11
15 47 18 80 3 39 17 83 39 129 42 87 63 110 101 119 25 5 35 2 52 -16 12 -13
23 -34 24 -48 4 -31 -9 -152 -22 -205 -12 -50 -59 -165 -75 -185 -23 -29 -123
-309 -124 -348 -1 -9 -7 -35 -16 -57 -8 -22 -21 -125 -30 -230 -8 -105 -21
-207 -29 -228 -8 -20 -15 -55 -15 -75 0 -21 -12 -76 -26 -123 -25 -80 -26
-102 -36 -429 -6 -190 -12 -523 -12 -741 -1 -365 0 -398 17 -416 9 -11 17 -32
17 -46 0 -20 18 -44 70 -94 39 -36 79 -73 90 -80 11 -8 20 -19 20 -25 0 -6 11
-26 25 -44 14 -18 25 -37 25 -42 0 -5 6 -15 14 -21 8 -6 16 -43 20 -88 4 -42
16 -92 26 -113 10 -20 22 -65 26 -99 6 -54 28 -114 63 -171 35 -56 118 -200
132 -229 44 -91 138 -163 231 -177 52 -8 100 -42 134 -95 14 -23 32 -39 43
-39 11 0 40 -16 66 -35 70 -54 181 -92 425 -146 47 -10 94 -23 105 -28 64 -31
313 -86 349 -77 22 5 26 12 26 43 0 53 -64 120 -209 215 -14 10 -35 18 -45 18
-11 0 -27 7 -37 16 -10 9 -31 23 -47 32 -63 36 -235 173 -284 227 -100 110
-137 158 -148 191 -7 21 -22 47 -32 58 -16 15 -19 27 -14 57 4 27 2 40 -8 46
-35 20 -117 105 -138 143 -13 23 -35 63 -50 89 -15 25 -32 57 -37 71 -6 14
-16 32 -21 40 -6 8 -13 22 -16 30 -20 48 -57 128 -69 150 -7 14 -16 42 -20 62
-4 20 -16 44 -26 54 -10 9 -19 26 -19 36 0 18 -32 97 -65 158 -7 14 -17 48
-23 75 -6 28 -18 64 -26 80 -9 17 -16 44 -16 60 0 17 -6 39 -14 50 -19 27 -36
146 -36 247 0 46 -4 88 -9 94 -5 5 -12 56 -16 114 -3 58 -10 134 -15 169 -7
49 -6 68 5 85 11 17 12 49 4 171 -5 83 -7 161 -4 175 3 14 12 101 20 194 8 93
19 174 25 181 5 6 15 58 20 115 6 57 16 113 22 124 6 11 17 53 24 93 7 40 20
87 29 105 9 18 19 58 22 88 3 30 14 69 23 85 10 17 21 47 25 67 4 21 13 42 21
49 8 6 14 22 14 36 0 13 14 60 31 103 51 129 125 186 164 126 26 -39 1 -162
-61 -303 -8 -17 -14 -39 -14 -48 0 -9 -11 -49 -24 -88 -13 -40 -27 -94 -31
-122 -4 -27 -12 -59 -19 -70 -18 -28 -49 -301 -43 -366 4 -30 7 -70 9 -89 2
-26 10 -38 30 -48 41 -19 128 8 151 48 10 16 31 43 48 60 31 31 81 124 114
215 11 28 24 59 31 70 6 11 20 54 29 95 20 87 58 188 92 245 13 22 30 54 38
72 8 18 23 37 34 42 10 6 22 22 25 36 4 14 23 36 44 50 20 14 46 32 58 40 26
19 170 41 208 31 l28 -7 -7 -67 c-3 -37 -12 -72 -20 -77 -7 -6 -17 -26 -23
-46 -5 -19 -28 -53 -51 -75 -22 -23 -41 -44 -41 -47 0 -4 19 -16 43 -27 34
-16 48 -31 65 -68 12 -26 47 -80 77 -120 30 -41 59 -91 65 -111 5 -21 21 -48
36 -62 l26 -24 24 28 c23 27 30 29 123 34 91 4 101 3 120 -16 15 -15 21 -34
21 -67 0 -61 -14 -84 -50 -84 -31 0 -40 -15 -38 -65 2 -56 -10 -71 -83 -106
l-71 -34 6 -45 c3 -25 9 -76 12 -115 4 -49 15 -87 35 -125 16 -30 35 -72 43
-93 11 -26 25 -42 49 -52 18 -7 44 -27 58 -43 35 -43 112 -63 225 -60 119 4
129 16 64 79 -26 26 -51 55 -55 65 -3 11 -34 39 -68 64 -74 54 -96 88 -80 122
6 13 19 53 28 90 l18 67 -39 48 c-22 26 -43 50 -48 52 -23 9 -56 52 -56 70 0
45 107 65 140 27 9 -12 15 -12 38 0 15 8 39 14 55 14 27 0 27 0 12 30 -20 39
-20 129 0 136 9 4 32 -5 53 -18 92 -61 88 -60 106 -33 29 45 21 79 -29 116
-24 19 -45 39 -45 45 0 14 -63 74 -78 74 -16 0 -33 34 -31 67 2 65 -13 291
-21 328 -6 22 -19 81 -30 131 -12 50 -29 101 -38 114 -49 64 -59 72 -101 80
-39 7 -43 5 -53 -16 -6 -13 -24 -27 -39 -33 -16 -5 -37 -24 -48 -41 -18 -31
-109 -86 -149 -91 -50 -6 -66 34 -37 91 8 16 12 36 9 45 -4 9 2 25 13 38 11
12 30 39 43 61 21 35 22 42 11 70 -36 86 -44 116 -48 171 -4 51 -1 65 19 94
36 54 108 90 212 107 50 8 110 19 134 24 57 13 118 13 145 -1 12 -7 42 -28 66
-48 40 -31 52 -36 105 -37 60 -1 61 -2 106 -54 33 -39 48 -66 55 -104 8 -38
16 -54 33 -61 15 -6 26 -24 33 -50 5 -22 16 -56 24 -75 7 -19 25 -74 40 -122
14 -48 30 -90 34 -93 5 -2 21 -28 36 -57 23 -44 27 -64 26 -121 -1 -38 3 -75
8 -81 5 -6 12 -38 15 -71 4 -33 10 -78 12 -100 8 -55 -23 -95 -72 -95 -20 0
-44 4 -54 10 -31 16 -76 101 -95 178 -9 40 -25 80 -34 89 -13 14 -16 44 -17
187 -1 154 -3 176 -23 216 -12 25 -27 76 -33 113 -16 99 -26 65 -33 -113 -7
-184 -14 -203 -82 -222 -52 -15 -61 -27 -88 -116 -14 -48 -14 -61 1 -155 17
-103 32 -146 64 -182 10 -11 21 -31 25 -45 4 -13 16 -36 25 -50 10 -14 21 -42
25 -62 4 -28 13 -42 35 -53 16 -8 34 -15 39 -15 6 0 30 -12 54 -26 88 -54 116
-154 98 -354 -6 -58 -13 -139 -17 -180 -4 -41 -12 -82 -20 -90 -7 -8 -16 -28
-19 -45 -14 -59 -104 -185 -132 -185 -7 0 -23 -12 -36 -26 -12 -14 -31 -30
-42 -36 -11 -5 -38 -20 -60 -33 -74 -45 -179 -85 -223 -85 -34 0 -164 70 -185
100 -7 9 -27 25 -44 35 -18 11 -33 24 -33 30 0 6 -13 29 -29 51 -28 38 -101
214 -101 244 0 8 -9 32 -20 53 -14 26 -21 60 -22 114 l-3 78 -43 23 c-44 25
-71 24 -105 -1 -25 -17 -41 -152 -26 -211 6 -23 21 -86 34 -141 13 -55 28
-118 34 -140 6 -22 11 -60 11 -84 0 -51 47 -131 100 -169 20 -15 45 -53 70
-107 61 -129 132 -174 303 -195 129 -15 187 -3 276 57 36 25 76 55 88 67 11
13 32 32 45 42 13 10 33 33 43 49 10 17 24 35 30 40 6 6 23 27 39 47 15 20 43
53 62 73 19 20 36 48 39 63 6 27 68 154 88 180 19 24 59 126 69 177 6 28 19
76 29 108 11 31 19 64 19 72 0 8 9 42 21 75 14 42 23 103 29 207 5 81 14 218
20 303 14 195 8 504 -10 542 -7 15 -23 34 -36 43 -15 9 -31 40 -46 86 -12 39
-30 75 -40 80 -26 14 -46 59 -53 120 -4 30 -13 88 -20 129 -8 41 -17 118 -21
170 -3 52 -13 113 -21 135 -14 39 -29 131 -40 248 -6 75 8 110 69 168 26 25
48 53 48 63 0 19 -74 144 -121 206 -14 19 -30 45 -33 58 -7 20 -39 63 -65 85
-20 17 -98 97 -166 168 -38 41 -83 82 -100 93 -16 10 -41 29 -54 42 -13 14
-36 27 -50 30 -14 3 -51 16 -82 30 -31 13 -65 24 -76 24 -11 0 -28 9 -38 20
-10 11 -26 20 -36 20 -10 0 -43 11 -73 25 -30 14 -57 25 -60 25 -11 0 -112 50
-141 70 -16 11 -37 20 -46 20 -15 0 -70 54 -117 114 -29 38 -29 93 1 137 33
50 113 75 252 82 61 2 131 2 156 -2 26 -4 56 -4 68 1 20 7 20 10 8 40 -7 18
-25 39 -40 46 -14 7 -35 26 -47 42 -12 16 -34 31 -53 36 -17 3 -45 17 -62 30
-31 24 -172 74 -209 74 -11 0 -43 7 -70 15 -78 24 -383 22 -521 -3 -60 -11
-123 -25 -139 -32 -16 -6 -49 -15 -75 -21 -25 -5 -71 -22 -101 -35 -30 -14
-73 -34 -96 -45 -23 -10 -49 -19 -58 -19 -9 0 -19 -7 -22 -15 -3 -8 -16 -17
-27 -21 -12 -3 -85 -36 -162 -74 -77 -37 -161 -73 -186 -79 -54 -15 -142 -98
-153 -145 -8 -33 -90 -145 -114 -153 -21 -8 -52 32 -52 67 0 15 7 47 15 70 8
23 15 53 15 65 0 15 23 46 65 87 36 36 65 71 65 80 0 17 27 43 55 52 11 4 45
35 75 70 30 35 62 66 71 69 9 2 19 19 23 37 13 66 49 77 123 38 42 -22 43 -22
107 -5 35 9 75 17 88 17 13 0 40 12 61 26 31 21 36 28 26 40 -6 8 -22 14 -35
14 -27 0 -64 32 -64 56 0 37 20 57 127 125 17 11 36 33 42 50 7 21 23 35 53
48 24 10 54 28 68 40 15 13 32 20 45 17 12 -3 31 5 49 20 23 20 30 36 34 76 5
49 5 50 59 74 50 23 63 25 181 21 98 -3 148 -10 222 -30 192 -54 259 -79 265
-98 7 -21 30 -24 69 -9 23 9 25 12 14 35 -6 14 -23 28 -37 32 -14 3 -51 19
-81 35 -30 15 -62 28 -72 28 -10 0 -47 11 -84 25 -36 14 -80 25 -96 25 -17 0
-44 6 -61 14 -18 8 -56 17 -85 20 -46 4 -156 40 -202 65 -8 4 -21 20 -28 34
-23 46 -60 59 -143 47 -40 -6 -78 -15 -85 -21 -6 -5 -45 -17 -85 -25 -41 -8
-81 -21 -89 -28 -21 -19 -191 -92 -231 -101 -19 -4 -42 -16 -52 -26 -10 -11
-28 -19 -40 -19 -12 0 -38 -11 -58 -24 -20 -14 -52 -27 -72 -31 l-35 -7 8 36
c7 30 57 96 74 96 3 0 26 19 52 43 120 111 176 171 195 210 12 23 28 46 36 50
7 5 20 25 28 45 9 20 28 46 45 57 16 11 34 29 40 40 13 23 142 109 180 120 14
4 34 13 45 19 11 7 43 18 70 26 28 7 55 18 60 25 6 7 19 15 30 18 25 8 381 11
413 3 13 -3 35 -1 49 5 14 5 82 14 151 20 70 5 133 12 139 14 24 8 -6 49 -50
70 -23 11 -58 34 -77 50 -59 51 -114 91 -145 108 -42 21 -145 123 -145 142 0
9 -7 18 -16 22 -19 7 -36 47 -28 67 3 8 21 22 41 31 34 16 36 16 116 -16 45
-18 122 -52 171 -76 49 -23 95 -43 101 -43 6 0 21 -13 33 -30 13 -16 32 -30
43 -30 23 0 174 -113 190 -141 5 -11 28 -31 49 -44 22 -14 40 -32 40 -39 0 -8
12 -24 26 -35 14 -11 33 -35 43 -53 21 -42 61 -88 76 -88 7 0 31 -20 54 -45
23 -25 46 -45 51 -45 5 0 22 -14 40 -31 28 -29 33 -30 60 -19 25 10 37 8 108
-24 44 -20 82 -36 86 -36 15 0 145 -83 150 -96 3 -7 21 -20 41 -29 38 -15 118
-96 145 -145 8 -15 30 -40 48 -55 18 -15 39 -39 46 -54 8 -14 39 -53 70 -86
31 -33 56 -64 56 -69 0 -5 10 -23 23 -40 12 -17 28 -43 34 -57 6 -15 25 -42
41 -60 16 -19 52 -67 80 -108 29 -41 65 -82 81 -92 16 -10 32 -28 36 -41 4
-13 15 -41 25 -63 10 -22 22 -53 26 -70 11 -34 40 -43 84 -25 24 10 35 8 81
-15 52 -26 98 -68 99 -91 0 -6 9 -19 19 -28 11 -10 23 -32 27 -50 4 -17 17
-53 29 -81 30 -68 54 -145 61 -197 9 -73 12 -82 28 -113 8 -16 18 -50 21 -75
4 -25 11 -56 16 -70 5 -14 18 -79 29 -145 27 -154 28 -163 35 -270 3 -49 10
-103 15 -120 12 -39 32 -195 34 -260 1 -27 5 -56 10 -64 15 -24 18 -91 6 -122
-9 -22 -19 -29 -39 -29 -58 0 -76 29 -160 247 -17 45 -45 106 -62 135 -16 29
-38 70 -47 90 -10 22 -24 38 -34 38 -9 0 -19 6 -21 13 -10 24 -7 -83 4 -132 7
-36 8 -60 0 -83 -8 -25 -7 -45 4 -82 8 -27 15 -64 15 -82 0 -40 33 -131 53
-147 8 -7 36 -60 61 -119 l46 -106 5 -174 c3 -95 13 -226 22 -292 12 -91 14
-174 10 -360 -3 -148 0 -267 6 -308 8 -48 8 -96 -1 -175 -10 -94 -25 -429 -27
-595 0 -92 15 -91 72 4 27 46 55 102 61 125 14 48 35 73 62 73 26 0 33 -15 41
-85 6 -44 13 -64 30 -78 30 -24 36 -17 113 139 27 57 41 186 40 391 0 128 -7
143 -64 143 -21 0 -42 6 -48 13 -6 7 -11 53 -11 102 0 79 4 96 26 134 21 36
27 63 32 140 8 113 -14 437 -30 466 -7 10 -13 41 -15 67 -5 66 -17 84 -72 112
-67 34 -75 47 -70 105 4 38 13 59 41 91 22 26 38 58 43 83 4 23 7 206 6 407
-1 201 3 400 8 443 12 95 36 137 81 137 38 0 69 -16 69 -35 0 -8 9 -32 20 -54
19 -36 21 -52 17 -225 -4 -168 -3 -190 14 -223 14 -27 19 -59 19 -114 0 -56 4
-80 15 -89 8 -7 13 -16 10 -20 -7 -12 -7 -81 0 -110 3 -14 7 -137 8 -275 l3
-250 28 -47 c15 -27 33 -48 39 -48 7 0 27 9 45 20 67 41 96 133 68 216 -10 30
-16 81 -16 137 0 83 3 95 36 161 l37 71 -12 90 c-6 50 -17 135 -25 190 -8 55
-17 125 -21 155 -4 31 -15 64 -25 75 -33 37 -43 125 -20 180 19 45 18 70 -2
117 -29 68 -50 64 -71 -12 -10 -33 -21 -60 -26 -60 -5 0 -19 12 -31 27 -18 23
-21 36 -16 78 9 83 8 89 -19 111 -28 22 -55 98 -80 219 -19 94 -52 216 -65
238 -6 9 -17 43 -24 75 -8 31 -19 71 -25 87 -23 66 -61 197 -61 211 0 8 -9 31
-20 51 -11 21 -20 49 -20 63 0 14 -9 39 -20 55 -11 17 -20 38 -20 48 0 10 -9
35 -19 55 -11 21 -23 56 -26 77 -4 22 -15 54 -25 70 -10 17 -21 46 -25 65 -4
19 -13 46 -20 60 -6 14 -19 41 -28 60 -66 149 -68 155 -81 233 -3 15 -14 39
-25 53 -12 15 -21 31 -21 37 0 6 -8 20 -18 31 -10 12 -31 50 -47 86 -39 85
-68 120 -123 147 -25 12 -56 33 -69 47 -13 14 -28 26 -33 26 -11 0 -140 130
-140 141 0 13 -69 110 -95 134 -12 11 -29 32 -38 47 -10 15 -32 35 -50 44 -17
9 -45 30 -60 46 -16 17 -44 36 -62 44 -18 7 -39 19 -47 26 -56 54 -186 138
-213 138 -8 0 -30 18 -50 39 -83 90 -103 134 -70 161 30 25 18 66 -27 99 -46
34 -69 37 -164 19 -55 -10 -66 -9 -81 4 -21 18 -129 53 -188 61 -22 3 -67 1
-101 -3z m-104 -560 c24 -24 25 -49 6 -76 -14 -18 -17 -18 -43 -4 -30 17 -38
38 -29 76 8 30 38 32 66 4z m1388 -953 c10 -19 25 -50 32 -71 6 -21 27 -51 45
-68 19 -17 37 -44 40 -62 4 -17 18 -48 31 -68 13 -21 24 -42 24 -46 0 -5 16
-30 35 -55 19 -25 35 -49 35 -53 0 -5 24 -56 53 -114 39 -76 52 -112 48 -129
-10 -38 -26 -35 -61 9 -21 26 -40 40 -55 40 -36 0 -55 -10 -55 -29 0 -10 -6
-25 -13 -35 -12 -16 -16 -13 -45 27 -18 25 -32 48 -32 52 0 4 -9 18 -20 32
-11 14 -20 36 -20 48 0 12 -11 35 -25 51 -14 16 -25 34 -25 41 0 7 -38 51 -84
98 -140 143 -162 234 -64 264 36 11 48 20 53 40 17 67 71 81 103 28z m-3048
-279 c24 -27 25 -36 2 -69 -9 -15 -29 -45 -44 -67 -16 -23 -40 -49 -55 -59
-16 -10 -32 -23 -36 -30 -5 -8 -28 -13 -57 -13 -63 0 -90 25 -90 85 0 66 72
135 139 135 17 0 45 9 63 20 42 25 53 25 78 -2z m-462 -100 c32 -32 -7 -107
-75 -140 -39 -19 -56 -16 -77 17 -14 21 -13 24 12 48 27 26 113 86 123 87 3 0
10 -5 17 -12z m1258 -756 c21 -14 23 -41 3 -65 -39 -50 -238 -144 -275 -130
-11 4 -34 46 -34 63 0 6 15 16 34 24 18 8 40 23 48 34 16 24 150 81 188 82 14
0 30 -4 36 -8z m-1752 -1661 c4 -5 3 -16 0 -25 -5 -12 -9 -13 -24 -3 -14 8
-16 15 -8 24 12 15 25 17 32 4z m-434 -1367 c0 -24 -37 -50 -52 -35 -10 10
-12 44 -4 68 7 22 8 22 32 7 14 -10 24 -26 24 -40z m-1100 -1314 c33 0 69 -42
76 -87 6 -40 4 -45 -32 -78 -51 -47 -82 -46 -128 3 -37 38 -41 55 -30 112 5
23 15 36 38 46 17 7 37 11 44 9 8 -3 22 -5 32 -5z m283 -682 c9 -11 17 -26 17
-33 0 -7 7 -18 15 -25 21 -18 19 -77 -4 -106 -32 -41 -91 -76 -117 -70 -12 3
-39 26 -58 50 -45 55 -48 102 -10 158 41 58 117 71 157 26z m218 -811 c46 -57
52 -76 47 -146 -8 -108 -87 -231 -149 -231 -17 0 -32 6 -35 15 -3 8 -15 17
-25 20 -11 4 -27 24 -35 46 -9 21 -20 39 -24 39 -14 0 -31 102 -25 149 11 81
14 88 57 115 33 19 57 25 103 26 56 0 62 -2 86 -33z m-203 -1009 c35 -29 -14
-128 -64 -128 -31 0 -74 42 -74 70 0 12 14 35 30 52 26 25 35 29 63 23 17 -4
38 -12 45 -17z m1878 -1421 c23 -20 28 -34 32 -85 l4 -60 -41 -26 c-50 -32
-66 -32 -108 -3 -61 41 -67 114 -15 170 34 36 89 37 128 4z m3661 -12 c48 -29
61 -59 47 -113 -17 -67 -102 -99 -163 -62 -33 21 -33 21 -29 87 4 57 8 69 32
89 35 31 59 30 113 -1z m-2386 -895 c22 -12 49 -60 49 -87 0 -10 -7 -28 -15
-40 -13 -18 -20 -20 -43 -12 -41 14 -84 73 -76 104 10 40 47 55 85 35z m282
-209 c20 -12 37 -29 37 -36 0 -19 -25 -36 -43 -29 -20 7 -59 72 -51 85 7 11 6
12 57 -20z"/>
<path d="M5060 14199 c0 -5 5 -7 10 -4 6 3 10 8 10 11 0 2 -4 4 -10 4 -5 0
-10 -5 -10 -11z"/>
<path d="M4913 14053 c-18 -38 -18 -59 0 -41 14 14 37 53 37 62 0 17 -27 2
-37 -21z"/>
<path d="M10835 14048 c-4 -10 -4 -26 0 -35 8 -17 8 -17 12 0 3 9 3 25 0 35
-4 16 -4 16 -12 0z"/>
<path d="M6176 13975 c-3 -8 -1 -15 4 -15 6 0 10 7 10 15 0 8 -2 15 -4 15 -2
0 -6 -7 -10 -15z"/>
<path d="M6130 13874 c0 -8 5 -12 10 -9 6 4 8 11 5 16 -9 14 -15 11 -15 -7z"/>
<path d="M4780 13819 c0 -5 5 -7 10 -4 6 3 10 8 10 11 0 2 -4 4 -10 4 -5 0
-10 -5 -10 -11z"/>
<path d="M5945 13750 c-4 -6 3 -10 14 -10 25 0 27 6 6 13 -8 4 -17 2 -20 -3z"/>
<path d="M7032 13709 c-43 -20 -86 -54 -135 -104 -91 -93 -147 -160 -147 -176
0 -7 -24 -38 -52 -69 -29 -32 -58 -64 -65 -72 -6 -9 -30 -18 -52 -22 -33 -5
-46 -13 -61 -39 -41 -69 -72 -107 -89 -107 -22 0 -51 -31 -51 -54 0 -9 -9 -42
-20 -73 -11 -32 -20 -68 -20 -80 0 -36 40 -29 80 12 19 19 41 35 49 35 8 0 23
8 34 18 10 9 37 22 60 27 33 9 46 19 64 50 12 22 31 43 42 47 13 5 21 16 21
32 0 13 6 26 14 29 7 3 16 21 20 39 5 27 36 65 134 165 70 71 137 133 150 137
12 4 22 11 22 16 0 5 23 24 50 42 28 18 50 36 50 40 0 4 14 22 30 40 34 36 38
59 14 82 -24 24 -73 19 -142 -15z"/>
<path d="M8830 13400 c-62 -5 -109 -14 -135 -27 -22 -11 -47 -23 -55 -25 -12
-5 -11 -7 4 -13 29 -12 346 21 375 39 11 7 9 12 -10 22 -26 14 -36 15 -179 4z"/>
<path d="M6970 13252 c0 -7 -12 -12 -26 -12 -28 0 -93 -35 -107 -57 -4 -7 -26
-16 -48 -19 -47 -8 -59 -22 -34 -41 32 -22 75 -16 109 17 17 16 51 48 76 69
24 22 41 43 37 47 -4 4 -7 2 -7 -4z"/>
<path d="M8931 13168 c-45 -5 -71 -14 -88 -30 l-24 -22 23 -23 c46 -46 169
-26 236 37 13 12 21 24 19 26 -12 12 -109 19 -166 12z"/>
<path d="M4485 13129 c-10 -43 -1 -46 12 -4 6 19 7 35 3 35 -5 0 -11 -14 -15
-31z"/>
<path d="M6071 13114 c0 -11 3 -14 6 -6 3 7 2 16 -1 19 -3 4 -6 -2 -5 -13z"/>
<path d="M9600 13015 c0 -16 31 -63 44 -68 9 -4 52 -34 96 -69 93 -72 112 -83
158 -92 26 -4 32 -2 32 11 0 21 -42 83 -56 83 -6 0 -19 9 -30 21 -10 12 -50
43 -88 70 -58 40 -78 49 -113 49 -24 0 -43 -2 -43 -5z"/>
<path d="M4350 12843 l0 -58 20 44 c25 55 25 71 0 71 -18 0 -20 -7 -20 -57z"/>
<path d="M6152 12818 c10 -28 12 -30 19 -12 13 32 10 44 -10 44 -18 0 -19 -3
-9 -32z"/>
<path d="M4342 12750 c0 -19 2 -27 5 -17 2 9 2 25 0 35 -3 9 -5 1 -5 -18z"/>
<path d="M10295 12001 c-11 -4 -39 -6 -62 -3 -59 6 -73 -8 -73 -73 0 -37 11
-81 34 -142 19 -48 43 -115 54 -148 11 -33 33 -94 50 -135 16 -41 35 -102 41
-134 6 -32 17 -67 26 -76 8 -9 15 -24 15 -32 0 -8 9 -42 19 -75 10 -32 21 -74
24 -93 3 -19 12 -55 21 -80 15 -48 51 -199 62 -264 4 -22 15 -54 24 -70 10
-17 21 -49 25 -71 4 -22 10 -44 15 -50 4 -5 10 -23 14 -40 4 -16 18 -53 32
-82 13 -28 24 -57 24 -64 0 -7 11 -35 24 -63 36 -78 53 -139 76 -277 11 -70
29 -148 39 -175 25 -63 78 -365 87 -494 12 -185 20 -231 46 -257 l25 -25 47
33 c56 40 64 62 76 224 15 204 1 439 -37 615 -13 63 -29 144 -35 180 -5 36
-18 92 -28 125 -10 33 -21 81 -24 107 -3 26 -13 67 -24 91 -11 24 -22 65 -26
93 -4 27 -18 78 -30 114 -13 36 -31 99 -40 140 -9 41 -22 91 -30 110 -34 89
-42 127 -66 335 -8 72 -22 105 -79 190 -19 28 -40 68 -48 89 -7 22 -21 48 -30
58 -11 12 -14 27 -9 49 4 24 0 43 -18 73 -13 23 -27 56 -31 74 -3 17 -11 32
-15 32 -5 0 -14 19 -21 43 -6 23 -17 49 -26 58 -8 9 -18 30 -22 45 -6 23 -15
30 -42 35 -19 4 -41 9 -49 12 -8 3 -24 2 -35 -2z"/>
<path d="M11072 11750 c0 -14 2 -19 5 -12 2 6 2 18 0 25 -3 6 -5 1 -5 -13z"/>
<path d="M5445 10934 c4 -32 14 -79 21 -104 8 -25 14 -73 14 -107 0 -52 5 -70
31 -112 33 -52 37 -55 63 -45 26 10 67 285 48 321 -21 38 -101 95 -143 100
l-41 6 7 -59z"/>
<path d="M13436 10971 c-12 -19 -20 -318 -8 -324 21 -14 30 53 25 190 -3 76
-6 139 -8 141 -2 2 -6 -1 -9 -7z"/>
<path d="M3836 10782 c-3 -6 -2 -21 3 -33 l8 -24 8 24 c7 24 -8 51 -19 33z"/>
<path d="M5088 10659 c-2 -8 -3 -104 -2 -213 3 -170 6 -204 22 -234 23 -46 61
-60 97 -36 38 25 42 59 15 134 -13 36 -27 83 -31 105 -4 22 -12 58 -18 80 -6
22 -13 62 -17 88 -3 32 -11 50 -22 54 -9 4 -22 13 -28 21 -9 13 -12 13 -16 1z"/>
<path d="M5671 10384 c0 -11 3 -14 6 -6 3 7 2 16 -1 19 -3 4 -6 -2 -5 -13z"/>
<path d="M7592 10125 c0 -16 2 -22 5 -12 2 9 2 23 0 30 -3 6 -5 -1 -5 -18z"/>
<path d="M12441 9714 c-28 -12 -48 -12 -115 -3 -45 7 -102 9 -129 5 -40 -6
-50 -12 -59 -34 -13 -35 -13 -288 1 -420 15 -139 37 -179 118 -208 56 -20 96
-18 111 6 7 12 23 20 41 20 16 0 39 9 52 19 23 18 24 25 24 129 -1 86 -5 115
-18 135 -19 30 -24 151 -6 163 6 3 19 25 29 49 10 24 23 46 29 49 6 4 11 16
11 26 0 10 9 25 20 33 16 11 18 16 8 24 -23 18 -82 22 -117 7z"/>
<path d="M5591 9499 c-25 -54 -35 -115 -20 -124 44 -28 79 4 79 71 0 43 -17
104 -29 104 -4 0 -18 -23 -30 -51z"/>
<path d="M11233 9515 c-41 -29 -45 -68 -45 -432 0 -189 2 -347 5 -349 3 -3 1
-18 -5 -34 -7 -20 -6 -35 2 -51 11 -20 13 -21 22 -5 6 10 8 31 4 47 -3 16 1
40 9 56 8 15 12 35 10 45 -3 9 4 35 16 57 30 59 51 271 47 482 -2 122 -7 170
-17 182 -17 21 -21 21 -48 2z"/>
<path d="M5385 9238 c-42 -15 -63 -35 -70 -69 -4 -16 -11 -31 -16 -34 -12 -8
-12 -88 0 -100 5 -6 16 -46 25 -89 11 -55 23 -86 40 -103 l24 -23 7 37 c4 21
13 52 20 68 8 17 17 75 20 130 4 54 8 102 11 106 8 14 -8 89 -20 88 -6 0 -24
-5 -41 -11z"/>
<path d="M12119 8728 c-23 -8 -27 -17 -35 -66 -4 -31 -8 -151 -8 -267 1 -175
4 -215 17 -240 9 -16 17 -45 17 -63 0 -19 7 -49 16 -68 15 -31 15 -39 -6 -126
-13 -51 -31 -119 -41 -150 -11 -32 -19 -63 -19 -70 0 -7 -16 -39 -35 -71 -19
-32 -40 -78 -45 -102 -5 -24 -28 -70 -50 -101 -22 -32 -40 -63 -40 -70 0 -7
-17 -26 -38 -42 -67 -54 -122 -17 -93 63 16 45 14 62 -10 86 l-21 21 -28 -34
c-16 -18 -34 -55 -40 -83 -6 -27 -20 -84 -30 -125 -10 -41 -21 -93 -25 -114
-3 -21 -13 -48 -20 -60 -7 -12 -18 -48 -24 -81 -11 -61 -56 -192 -72 -209 -5
-6 -9 -16 -9 -24 0 -7 -11 -37 -24 -65 -107 -228 -167 -345 -184 -361 -12 -10
-24 -32 -28 -50 -3 -17 -23 -55 -43 -84 -20 -29 -43 -66 -52 -82 -9 -17 -35
-54 -58 -83 -22 -30 -41 -57 -41 -62 0 -24 -219 -262 -275 -299 -14 -9 -31
-28 -37 -41 -6 -13 -24 -29 -39 -36 -21 -8 -29 -18 -29 -35 0 -36 40 -31 78 9
18 17 57 55 88 82 32 28 91 83 133 123 116 112 142 131 169 121 32 -12 31 -77
-2 -116 -14 -16 -28 -41 -31 -56 -6 -22 -88 -108 -128 -134 -23 -15 -86 -100
-92 -124 -5 -19 1 -31 25 -54 29 -27 37 -30 94 -28 48 1 73 7 102 26 22 13 54
28 72 32 18 4 40 17 48 30 8 13 25 26 38 29 12 3 42 24 66 47 25 22 57 47 71
55 15 7 36 29 47 49 12 19 26 35 31 35 5 0 23 23 40 50 17 28 35 50 41 50 6 0
18 17 27 38 10 20 25 49 35 64 10 14 28 57 39 95 12 37 28 81 36 96 8 16 21
56 28 90 14 60 34 130 57 192 6 17 19 55 29 85 11 30 26 67 34 82 8 14 15 34
15 43 0 18 45 100 71 128 23 25 39 114 39 216 1 47 7 104 15 125 12 36 12 47
-4 106 -19 67 -18 124 2 117 6 -2 15 -19 20 -38 5 -19 15 -40 23 -48 12 -13
17 -12 37 7 21 19 25 36 30 105 4 55 1 91 -7 112 -16 39 -21 168 -6 194 5 11
15 57 21 103 7 46 19 93 29 108 10 14 21 43 25 65 3 22 16 60 28 85 18 38 21
64 22 160 0 63 -4 135 -9 160 -6 25 -10 141 -10 259 -1 204 -2 214 -21 221
-11 4 -32 3 -46 -2z m-159 -1458 c0 -11 -4 -20 -10 -20 -5 0 -10 9 -10 20 0
11 5 20 10 20 6 0 10 -9 10 -20z"/>
<path d="M11011 7844 c0 -11 3 -14 6 -6 3 7 2 16 -1 19 -3 4 -6 -2 -5 -13z"/>
<path d="M8577 7622 c-14 -15 -15 -30 -7 -110 6 -51 16 -105 24 -120 8 -15 19
-46 25 -70 13 -48 115 -157 204 -218 29 -20 63 -49 77 -65 25 -29 65 -55 129
-85 26 -12 40 -13 57 -5 20 9 21 14 14 47 -5 20 -20 48 -34 61 -14 13 -33 37
-41 52 -8 16 -25 38 -38 48 -13 10 -36 37 -50 60 -14 23 -31 44 -37 48 -6 4
-22 25 -37 48 -14 22 -30 45 -35 51 -14 16 -55 86 -77 131 -26 54 -112 145
-138 145 -11 0 -27 -8 -36 -18z"/>
<path d="M3725 7270 c3 -5 10 -10 16 -10 5 0 9 5 9 10 0 6 -7 10 -16 10 -8 0
-12 -4 -9 -10z"/>
<path d="M10667 7241 c-24 -15 -70 -56 -102 -91 -11 -11 -38 -40 -61 -63 -52
-54 -62 -82 -69 -197 -5 -76 -4 -99 8 -115 15 -19 15 -19 66 4 35 17 55 34 66
57 8 18 32 46 53 62 79 63 155 281 118 338 -17 25 -46 27 -79 5z"/>
<path d="M3718 7132 c-4 -63 -1 -93 9 -110 20 -32 39 -22 35 19 -7 85 -10 106
-16 136 -14 60 -24 44 -28 -45z"/>
<path d="M11253 7160 c-51 -52 -64 -71 -73 -114 -15 -70 -29 -125 -41 -161 -6
-16 -20 -63 -31 -102 -11 -40 -26 -73 -33 -73 -18 0 -51 -32 -59 -58 -4 -12
-22 -28 -40 -36 -18 -7 -41 -25 -52 -38 -15 -19 -25 -23 -41 -17 -24 9 -40 29
-23 29 6 0 16 12 22 28 7 15 23 40 35 55 23 29 23 46 1 106 l-9 24 -27 -26
c-16 -15 -36 -27 -45 -27 -10 0 -39 -19 -65 -43 -108 -97 -189 -163 -214 -175
-16 -6 -28 -16 -28 -21 0 -5 -15 -14 -32 -21 -18 -7 -47 -24 -65 -37 -17 -12
-43 -23 -57 -23 -27 0 -181 -45 -206 -61 -50 -30 -94 -50 -135 -59 -26 -6 -61
-21 -79 -34 -34 -25 -126 -66 -149 -66 -22 0 -95 -57 -102 -81 -11 -34 14 -71
46 -67 14 1 33 -3 42 -10 10 -8 66 -14 168 -18 240 -8 332 -31 364 -93 15 -29
14 -30 -31 -70 -25 -22 -67 -48 -92 -57 -26 -10 -59 -27 -74 -38 -32 -22 -53
-76 -44 -111 7 -28 63 -64 120 -78 55 -13 162 -10 191 5 35 20 109 70 115 78
3 4 23 18 45 32 61 39 225 204 225 226 0 6 18 26 40 43 22 18 40 36 40 41 0 9
56 85 76 103 11 9 89 119 106 148 51 89 100 186 122 247 16 41 37 95 47 120
10 25 23 81 30 124 6 44 15 91 21 105 5 14 14 57 19 95 5 38 16 83 24 100 20
40 28 103 18 139 l-9 29 -61 -62z"/>
<path d="M6815 6639 c-5 -5 -26 -25 -47 -42 -24 -23 -40 -47 -47 -78 -6 -24
-18 -69 -26 -99 -8 -30 -19 -80 -26 -110 -6 -30 -20 -81 -31 -112 -13 -36 -18
-68 -14 -85 3 -16 9 -52 12 -81 4 -30 18 -84 31 -120 13 -37 30 -95 37 -129 7
-34 25 -80 39 -102 15 -22 27 -43 27 -47 0 -6 12 -34 51 -119 10 -22 25 -60
34 -85 9 -24 24 -59 34 -76 11 -17 22 -47 26 -65 9 -49 26 -89 37 -89 5 0 23
-22 40 -50 28 -46 34 -50 69 -50 45 0 72 25 90 79 6 20 16 41 20 47 22 27 41
119 49 229 l8 120 -34 57 c-19 31 -43 81 -53 110 -10 30 -28 72 -39 95 -12 22
-26 69 -31 104 -16 101 -31 218 -37 289 -2 36 -9 76 -14 90 -4 14 -11 45 -14
68 -4 24 -19 76 -34 114 -22 58 -36 78 -75 110 -50 39 -65 44 -82 27z"/>
<path d="M3838 6287 c-2 -88 0 -128 8 -131 26 -10 33 183 10 229 -14 26 -15
19 -18 -98z"/>
<path d="M11534 5609 c-10 -11 -33 -27 -51 -34 -18 -8 -33 -20 -33 -28 0 -8
-18 -22 -41 -32 -22 -10 -47 -31 -54 -46 -15 -29 -64 -74 -92 -84 -10 -4 -43
-35 -73 -70 -31 -35 -69 -68 -87 -75 -18 -6 -41 -25 -50 -41 -10 -16 -25 -32
-35 -35 -10 -3 -36 -21 -59 -40 -22 -19 -52 -37 -65 -40 -12 -3 -30 -16 -38
-29 -8 -12 -27 -26 -43 -29 -15 -4 -48 -20 -73 -35 -103 -65 -279 -146 -355
-165 -228 -55 -223 -55 -360 -46 -71 5 -161 16 -199 25 -38 9 -137 20 -220 25
-153 8 -227 2 -276 -24 -31 -17 -84 -29 -211 -48 -70 -11 -82 -10 -141 10 -35
12 -73 22 -84 22 -11 0 -40 13 -65 28 -95 60 -199 112 -224 112 -23 0 -105
-43 -105 -55 0 -13 37 -61 59 -80 42 -33 91 -65 102 -65 5 0 21 -11 34 -24 42
-42 148 -87 330 -138 107 -31 116 -32 335 -34 267 -3 237 0 244 -21 3 -10 17
-23 31 -30 24 -11 27 -9 45 27 17 33 24 38 52 38 18 -1 63 10 99 24 36 14 90
29 120 33 30 4 81 16 114 27 88 28 245 49 370 51 95 1 117 -2 163 -23 59 -26
82 -51 82 -91 0 -32 -38 -81 -89 -115 -20 -13 -52 -35 -72 -48 -20 -14 -55
-29 -77 -35 -23 -7 -44 -16 -48 -22 -8 -13 -41 -26 -86 -33 -19 -3 -47 -10
-62 -16 -15 -5 -70 -15 -122 -21 -52 -5 -110 -17 -130 -25 -30 -13 -99 -22
-269 -37 -116 -11 -169 -21 -186 -38 -17 -17 -19 -17 -43 2 -14 11 -26 16 -26
11 0 -33 -181 -44 -255 -16 -22 9 -69 24 -105 34 -61 17 -116 42 -165 76 -11
8 -26 14 -34 14 -16 0 -182 83 -223 111 -14 11 -34 19 -43 19 -9 0 -36 14 -60
30 -24 17 -47 30 -50 30 -4 0 -18 9 -32 19 -28 23 -129 55 -149 47 -21 -8 -28
-74 -14 -130 11 -45 71 -135 129 -196 7 -8 20 -29 28 -48 8 -19 25 -45 39 -58
13 -14 24 -33 24 -42 0 -10 6 -26 14 -37 7 -11 19 -37 26 -58 8 -25 21 -42 38
-50 15 -6 34 -16 42 -23 8 -7 43 -19 77 -28 35 -8 82 -25 105 -37 23 -12 70
-30 103 -39 34 -10 70 -22 81 -28 20 -10 56 -18 243 -52 87 -16 121 -18 144
-10 16 5 49 10 72 10 27 0 70 12 116 34 41 18 85 37 99 41 14 4 31 12 38 18
20 16 220 97 289 118 35 9 67 20 73 24 13 8 97 31 183 50 38 8 76 19 86 25 10
5 29 11 42 14 13 2 44 12 68 20 24 9 54 16 66 16 12 0 47 14 78 30 31 17 62
30 68 30 12 0 154 63 179 80 8 5 36 21 62 35 26 14 55 36 63 49 9 13 33 31 53
39 20 8 66 44 102 79 36 34 74 70 86 78 28 21 120 126 179 206 l50 68 0 226
c0 151 4 232 11 241 6 8 17 37 23 64 7 28 22 60 33 72 13 14 23 41 26 72 2 28
11 56 18 62 20 17 17 73 -4 92 -24 22 -35 21 -58 -4z"/>
<path d="M12110 5527 c-30 -24 -67 -94 -85 -161 -18 -67 -18 -69 1 -83 16 -12
21 -11 36 9 9 13 23 34 30 48 7 14 23 41 35 60 15 24 22 51 22 88 0 54 -9 63
-39 39z"/>
<path d="M4600 3495 c0 -9 9 -15 25 -15 18 0 23 4 19 15 -4 8 -15 15 -25 15
-10 0 -19 -7 -19 -15z"/>
<path d="M12379 3323 c-49 -60 -59 -84 -58 -130 l2 -48 10 37 c6 21 18 40 28
43 11 4 21 24 28 57 13 57 11 66 -10 41z"/>
<path d="M5215 3180 c-17 -7 -14 -9 13 -9 20 -1 31 3 27 9 -7 12 -13 12 -40 0z"/>
<path d="M12276 3121 c-4 -7 -5 -15 -2 -18 9 -9 19 4 14 18 -4 11 -6 11 -12 0z"/>
<path d="M5007 2976 c-7 -19 1 -46 14 -46 11 0 11 31 0 48 -7 11 -9 11 -14 -2z"/>
<path d="M5256 2493 c-6 -14 -5 -15 5 -6 7 7 10 15 7 18 -3 3 -9 -2 -12 -12z"/>
<path d="M5273 2415 c1 -43 6 -68 12 -65 12 6 7 98 -6 120 -6 10 -8 -10 -6
-55z"/>
<path d="M11808 2300 c-26 -35 -26 -38 -9 -43 30 -7 43 7 39 46 l-3 36 -27
-39z"/>
<path d="M5310 2306 c0 -14 5 -28 10 -31 6 -4 10 7 10 24 0 17 -4 31 -10 31
-5 0 -10 -11 -10 -24z"/>
<path d="M5356 2201 c-4 -7 -5 -15 -2 -18 9 -9 19 4 14 18 -4 11 -6 11 -12 0z"/>
<path d="M11674 2189 c-3 -6 -1 -16 5 -22 8 -8 11 -5 11 11 0 24 -5 28 -16 11z"/>
<path d="M8652 1458 c3 -7 10 -13 16 -12 7 1 40 2 74 3 34 0 59 3 57 5 -2 2
-37 7 -78 10 -58 6 -72 5 -69 -6z"/>
<path d="M6664 1098 c-11 -18 43 -58 79 -58 l31 0 -34 35 c-34 36 -63 44 -76
23z"/>
<path d="M6845 966 c-18 -13 -18 -14 2 -24 30 -16 96 0 76 18 -17 16 -60 19
-78 6z"/>
</g>
</svg>
