<?xml version="1.0" standalone="no"?>
<!DOCTYPE svg PUBLIC "-//W3C//DTD SVG 20010904//EN"
 "http://www.w3.org/TR/2001/REC-SVG-20010904/DTD/svg10.dtd">
<svg version="1.0" xmlns="http://www.w3.org/2000/svg"
 width="1620.000000pt" height="1080.000000pt" viewBox="0 0 1620.000000 1080.000000"
 preserveAspectRatio="xMidYMid meet">

<g transform="translate(0.000000,1080.000000) scale(0.100000,-0.100000)"
fill="#000000" stroke="none">
<path d="M0 5400 l0 -5400 8100 0 8100 0 0 5400 0 5400 -8100 0 -8100 0 0
-5400z m11273 2485 c494 -44 709 -89 1022 -212 294 -116 580 -278 870 -493
187 -138 409 -336 398 -353 -4 -7 5 -4 20 6 37 24 45 21 13 -4 -56 -44 -73
-126 -37 -185 15 -24 38 -38 116 -68 53 -20 119 -42 146 -48 37 -9 48 -15 45
-27 -16 -54 -35 -157 -41 -221 -6 -63 -3 -83 14 -128 16 -39 19 -58 11 -72 -5
-10 -10 -61 -11 -112 0 -93 0 -93 -15 -53 -25 67 -184 350 -225 400 -21 26
-39 45 -39 42 0 -4 20 -59 44 -124 24 -65 51 -152 61 -193 11 -48 34 -102 62
-148 l44 -74 -85 -89 c-134 -140 -273 -332 -345 -477 -24 -48 -36 -62 -49 -58
-9 2 -30 7 -47 11 -29 5 -32 12 -80 153 -84 249 -250 557 -333 619 -52 39
-101 95 -156 180 -45 70 -85 106 -167 150 l-37 19 69 104 c38 58 68 109 66
115 -5 15 -72 33 -150 40 l-69 7 6 56 c10 93 15 195 10 204 -7 11 -92 -37
-235 -134 -64 -43 -119 -78 -122 -78 -2 0 -46 70 -97 155 -51 86 -97 154 -103
152 -14 -4 -78 -119 -133 -241 -41 -90 -51 -105 -69 -101 -23 5 -214 31 -297
41 -41 4 -58 3 -58 -5 0 -6 14 -41 30 -78 17 -36 30 -66 30 -67 0 0 -20 -2
-45 -3 -45 -2 -168 -35 -195 -53 -10 -6 22 -9 95 -7 187 3 178 6 225 -84 l41
-78 -63 -29 c-35 -16 -85 -37 -113 -47 -56 -21 -75 -33 -75 -48 0 -5 48 -59
106 -118 l107 -108 -63 -78 c-35 -43 -60 -69 -56 -58 9 23 9 24 7 48 -1 13
-10 17 -39 17 -47 0 -151 -19 -174 -31 -17 -9 -17 -11 -2 -34 9 -14 20 -22 25
-19 17 10 79 -17 96 -42 12 -19 14 -38 9 -84 -6 -52 -5 -60 12 -69 30 -16 83
-15 139 2 l53 16 -3 -32 -2 -32 90 1 c54 1 93 -3 97 -9 4 -6 10 -32 13 -57 11
-77 16 -79 86 -27 34 26 65 44 68 41 3 -3 10 -48 16 -101 l12 -95 -64 -29
c-91 -41 -152 -105 -185 -197 -23 -63 -94 -334 -155 -596 l-18 -80 -37 1 c-21
1 -49 2 -63 2 -14 1 -34 10 -45 21 -11 11 -33 20 -50 20 -28 0 -30 -2 -30 -41
0 -53 23 -101 58 -122 42 -24 106 -36 128 -24 17 9 18 9 5 -6 -7 -10 -28 -17
-46 -17 -36 0 -171 -32 -226 -55 -34 -13 -38 -12 -54 5 -22 24 -79 43 -104 35
-24 -7 -35 19 -16 35 10 8 13 21 9 39 -18 72 -84 292 -103 339 -12 30 -18 58
-15 64 4 7 2 8 -4 4 -7 -4 -12 -3 -12 2 0 6 -15 33 -34 60 l-34 51 82 26 c307
99 477 412 396 729 -40 157 -151 320 -270 396 -175 112 -417 113 -636 2 -177
-91 -285 -218 -328 -387 -10 -39 -21 -77 -24 -85 -3 -8 -5 -18 -4 -21 0 -3
-12 -6 -27 -6 -23 0 -33 9 -56 51 -16 28 -54 89 -84 136 -87 133 -92 142 -81
135 14 -8 12 18 -4 90 -16 67 -8 140 20 184 10 16 -1 9 -30 -19 -40 -38 -46
-49 -40 -73 3 -15 3 -46 -1 -68 l-7 -41 -67 65 c-39 38 -92 78 -129 97 -130
64 -326 117 -527 140 -283 34 -276 32 -352 92 -37 31 -77 66 -88 79 -14 17 -9
15 14 -6 21 -19 35 -26 38 -18 2 6 26 42 52 80 26 37 156 229 289 426 312 462
357 517 512 632 71 52 254 144 395 198 90 35 562 191 665 221 230 65 450 76
843 41z m3097 -1018 c0 -5 -16 -59 -35 -121 -19 -61 -57 -190 -85 -286 -53
-184 -90 -274 -117 -284 -27 -11 -51 3 -62 36 -16 45 -14 62 18 207 26 115
145 533 158 554 5 8 123 -93 123 -106z m-169 41 c-77 -224 -166 -608 -156
-675 7 -49 38 -93 66 -93 20 0 20 0 -1 -27 -29 -38 -66 -61 -124 -78 -40 -12
-51 -12 -58 -3 -13 21 -9 26 12 21 34 -9 50 14 50 74 0 44 -5 58 -25 78 -31
32 -43 31 -88 -6 l-37 -30 0 48 c0 47 42 240 59 270 6 11 10 12 15 4 23 -36
109 17 147 90 22 44 25 125 5 152 -15 19 -41 24 -68 13 -15 -7 -15 -4 -4 35
11 37 24 50 117 114 57 40 105 72 107 71 1 -2 -7 -28 -17 -58z m-2209 -275
c16 -24 31 -43 34 -43 3 0 67 44 142 98 75 54 154 109 175 121 l38 23 -5 -39
c-34 -253 -41 -228 70 -238 40 -4 87 -10 104 -14 l31 -6 -85 -125 c-48 -68
-86 -128 -86 -131 0 -4 42 -28 93 -54 50 -26 94 -49 96 -51 2 -2 -25 -30 -60
-61 -35 -32 -86 -79 -113 -104 l-49 -46 32 -54 c17 -30 39 -64 47 -76 16 -22
15 -22 -45 -40 -34 -10 -61 -23 -61 -28 0 -6 14 -55 31 -109 17 -54 28 -100
26 -102 -2 -2 -36 2 -76 11 -40 8 -74 15 -77 15 -2 0 -4 -39 -4 -87 l0 -87
-44 43 c-27 27 -49 40 -56 36 -7 -4 -21 -28 -32 -53 l-20 -45 -37 66 c-20 37
-38 67 -41 67 -3 0 -25 -28 -49 -61 l-43 -60 -45 73 c-25 40 -46 75 -48 77 -2
2 -42 -26 -88 -62 l-85 -65 -7 46 c-13 95 -13 94 -59 88 -22 -3 -64 -8 -93
-11 l-52 -7 24 73 c14 40 25 76 25 81 0 5 -36 25 -80 45 l-80 36 43 49 c23 27
53 63 66 79 l24 30 -107 108 -108 109 53 17 c95 31 199 77 199 88 0 6 -41 88
-90 184 -50 95 -88 173 -85 173 2 0 60 -9 127 -19 68 -11 144 -22 171 -26 l47
-6 29 63 c16 35 50 114 76 176 l47 113 66 -118 c35 -65 78 -137 94 -160z
m1793 153 c57 -19 129 -41 161 -48 58 -13 74 -30 74 -80 0 -34 -39 -106 -68
-127 -27 -18 -27 -18 -192 36 -107 34 -171 61 -182 74 -20 24 -24 89 -7 122
36 69 66 72 214 23z m-5355 -489 c107 -101 189 -141 345 -168 235 -40 609
-140 681 -182 44 -25 193 -230 321 -441 68 -111 72 -121 57 -138 -15 -16 -21
-10 -92 100 -229 357 -239 369 -335 430 -157 99 -241 128 -501 172 -268 46
-356 83 -483 204 -69 65 -82 63 -28 -5 19 -24 35 -48 35 -53 0 -5 -18 15 -40
44 -22 29 -40 59 -40 66 0 7 -3 19 -6 28 -11 29 7 17 86 -57z m-132 -42 c40
-30 83 -56 95 -56 18 -1 18 -2 4 -6 -18 -5 -104 45 -128 73 -21 25 -49 37 -49
21 0 -22 71 -94 115 -116 22 -12 33 -21 24 -21 -39 0 -159 101 -159 134 0 13
9 26 19 26 3 0 39 -25 79 -55z m5874 -107 c-8 -8 -6 -17 8 -36 22 -27 25 -54
11 -80 -6 -12 4 -52 36 -136 75 -202 139 -489 188 -836 65 -472 27 -967 -106
-1370 -69 -210 -217 -582 -290 -730 -160 -324 -401 -598 -695 -789 -85 -56
-286 -158 -373 -190 l-53 -20 5 35 c9 52 25 67 64 61 38 -6 42 -2 14 13 -40
21 -98 -32 -103 -94 -3 -33 -10 -33 -51 4 -52 45 -61 39 -69 -44 -4 -42 -25
-43 -45 -2 -9 20 -22 36 -29 36 -6 0 -22 -25 -35 -55 -13 -30 -29 -55 -35 -55
-5 0 -32 14 -58 31 -27 16 -51 28 -53 25 -3 -3 -1 -27 4 -53 l8 -48 -90 -33
c-428 -158 -636 -200 -1010 -203 -88 -1 -165 -4 -172 -6 -6 -2 -14 -16 -18
-30 -3 -14 -8 -23 -10 -21 -7 7 70 252 118 378 88 228 91 235 118 238 13 1 71
14 129 27 58 13 134 27 170 30 36 4 97 18 135 32 39 13 101 33 138 44 76 21
139 51 222 104 30 19 56 35 58 35 3 0 6 -46 9 -103 4 -113 25 -169 66 -175 31
-5 105 77 188 206 66 101 67 102 90 87 160 -105 462 -265 500 -265 37 0 110
74 119 121 7 39 -14 101 -94 272 -49 106 -113 259 -109 261 2 1 58 48 126 105
l123 103 133 -16 c172 -21 246 -21 246 -1 0 14 -94 128 -144 174 -14 14 -26
28 -26 33 0 5 15 32 34 61 29 44 33 59 30 101 -2 26 -5 50 -8 53 -2 2 -22 -22
-44 -54 -22 -32 -49 -66 -60 -75 -20 -16 -22 -15 -57 23 -25 28 -33 44 -27 52
6 7 40 66 77 132 81 144 110 185 134 185 12 0 32 20 51 51 40 61 100 123 140
144 23 12 30 13 30 3 0 -8 5 -6 11 5 26 44 76 333 95 550 3 37 10 67 15 67 9
0 12 -10 25 -85 7 -39 8 -37 23 45 9 47 19 90 23 96 10 15 11 85 3 184 -6 61
-13 91 -26 106 -23 25 -58 179 -94 414 -35 229 -35 229 0 155 l23 -50 1 72 c1
66 4 75 32 107 25 29 29 41 24 66 -4 16 -11 32 -16 35 -5 4 -9 11 -9 16 0 6
14 -1 31 -15 60 -51 129 -26 129 47 0 30 7 48 31 75 24 27 29 41 25 61 -10 40
-5 141 10 216 4 22 0 38 -14 55 -15 19 -17 28 -9 42 6 9 13 15 16 12 3 -2 0
-9 -7 -16z m-5644 -68 c17 -21 47 -45 65 -54 17 -8 25 -16 16 -16 -23 0 -107
76 -124 114 -9 17 -10 22 -3 12 7 -11 28 -36 46 -56z m-158 45 c-7 -8 -24 -14
-39 -14 l-26 2 25 4 c14 3 29 9 35 14 15 15 19 10 5 -6z m-233 -19 c33 -31 76
-53 132 -67 23 -5 40 -13 37 -16 -20 -20 -226 68 -226 97 0 18 30 11 57 -14z
m36 17 c-7 -2 -21 -2 -30 0 -10 3 -4 5 12 5 17 0 24 -2 18 -5z m75 -10 c-10
-2 -28 -2 -40 0 -13 2 -5 4 17 4 22 1 32 -1 23 -4z m5922 -43 c0 -11 -77 -127
-89 -134 -6 -4 1 15 14 41 14 26 26 62 27 78 2 44 18 62 35 39 7 -10 13 -21
13 -24z m-5606 -78 c-6 -8 -62 42 -78 69 -14 24 -8 20 31 -18 27 -26 48 -50
47 -51z m5336 40 c-6 -2 -7 -51 -4 -113 3 -63 1 -116 -5 -126 -7 -13 -5 -23 6
-35 21 -23 5 -23 -25 0 -19 15 -21 22 -14 43 6 13 7 75 4 137 -4 84 -2 115 8
127 12 15 15 14 26 -7 7 -13 8 -24 4 -26z m213 26 c-4 -7 -8 -16 -8 -20 0 -3
-4 -10 -9 -15 -5 -5 -6 -2 -1 6 6 10 4 12 -4 7 -8 -5 -9 -12 -2 -20 7 -8 1
-25 -18 -56 -26 -43 -38 -74 -47 -130 -3 -14 -7 -37 -10 -52 -4 -23 -2 -28 13
-28 32 1 105 39 100 53 -6 15 20 54 29 44 12 -12 -19 -68 -45 -81 -14 -8 -53
-21 -86 -31 -33 -9 -64 -24 -68 -32 -8 -12 -12 -11 -25 9 -20 28 -25 45 -22
83 1 17 3 42 3 57 1 15 5 24 9 22 4 -3 8 0 8 5 0 6 -5 11 -11 11 -6 0 -9 9 -6
20 3 11 2 18 -2 15 -4 -2 -8 15 -9 38 l-2 42 58 0 c49 0 67 5 108 32 57 37 58
37 47 21z m-1581 -5 c2 -5 34 -23 72 -42 88 -44 176 -126 226 -210 21 -36 52
-79 70 -96 17 -16 44 -50 60 -75 29 -45 130 -327 130 -364 0 -15 5 -17 26 -12
26 7 74 -15 74 -33 0 -4 -35 -2 -77 5 -43 8 -141 23 -218 34 -176 26 -196 30
-190 40 3 4 -4 19 -16 31 l-20 24 4 -27 c4 -25 1 -28 -22 -28 -14 1 -46 5 -71
10 -25 5 -120 14 -212 21 -92 7 -165 16 -162 20 7 11 -33 86 -48 92 -7 2 -10
8 -5 13 4 4 29 -13 55 -39 26 -26 51 -47 55 -47 4 0 7 41 7 91 0 78 2 90 15
85 32 -12 145 -29 152 -23 3 4 -4 43 -16 88 -12 45 -20 84 -17 87 3 3 6 1 6
-5 0 -5 18 -33 40 -63 31 -41 41 -49 46 -36 9 24 -1 54 -40 118 l-34 57 49 16
c27 9 49 18 49 20 0 2 -25 39 -55 83 l-55 80 52 46 c53 46 64 52 70 39z
m-4241 -78 c-18 -8 -36 -15 -40 -15 -13 1 45 29 59 29 8 0 0 -6 -19 -14z m316
9 c-3 -3 -12 -4 -19 -1 -8 3 -5 6 6 6 11 1 17 -2 13 -5z m386 -19 c67 -14 145
-33 172 -42 129 -42 243 -120 296 -205 68 -106 252 -383 262 -393 6 -5 -2 11
-16 37 -15 26 -27 49 -27 52 0 3 13 12 30 21 l30 15 36 -54 36 -55 -34 -44
c-18 -25 -38 -53 -44 -63 -10 -17 -14 -13 -38 34 -83 165 -273 467 -319 510
-58 54 -295 137 -481 168 -120 20 -172 16 -252 -20 -59 -26 -64 -32 -108 -109
-44 -79 -63 -100 -30 -34 46 90 70 119 131 153 104 59 181 65 356 29z m1712
10 c205 -43 364 -200 437 -430 28 -88 35 -253 13 -335 -49 -192 -200 -323
-419 -365 -77 -15 -77 -6 1 19 111 37 251 153 313 261 78 137 78 377 -1 532
-39 77 -128 165 -201 198 -66 30 -210 50 -300 41 -298 -27 -529 -252 -516
-501 3 -72 3 -73 -15 -57 -17 15 -19 28 -15 114 4 88 9 105 45 180 84 174 247
297 458 343 79 18 116 18 200 0z m3455 10 c0 -4 -7 -20 -16 -38 -20 -39 -64
-93 -64 -78 0 5 5 13 11 16 6 4 8 14 5 22 -3 8 6 30 22 49 25 31 42 43 42 29z
m-5923 -31 c-3 -3 -12 -4 -19 -1 -8 3 -5 6 6 6 11 1 17 -2 13 -5z m-40 -10
c-3 -3 -12 -4 -19 -1 -8 3 -5 6 6 6 11 1 17 -2 13 -5z m111 -22 c132 -7 134
-7 159 -36 21 -25 24 -37 20 -75 -3 -25 -9 -57 -13 -70 -5 -17 -4 -22 4 -17 8
5 10 -3 5 -26 -8 -42 -9 -44 -28 -28 -19 16 -19 62 1 129 14 48 14 55 -1 77
-15 24 -17 24 -168 22 -107 -1 -159 2 -176 11 -19 11 -21 15 -10 22 8 5 28 7
44 4 17 -3 90 -9 163 -13z m416 -62 c-20 -39 -49 -80 -63 -91 -36 -29 -61 -69
-61 -101 0 -17 -10 -34 -29 -50 -16 -13 -48 -54 -70 -92 -37 -63 -39 -71 -26
-90 22 -30 18 -74 -8 -100 -13 -13 -28 -25 -34 -27 -6 -2 -22 -28 -37 -56 -26
-51 -26 -53 -6 -53 27 0 37 -27 17 -48 -15 -14 -18 -14 -35 1 -18 17 -20 15
-37 -38 -17 -57 -17 -74 5 -180 20 -97 6 -216 -45 -376 -7 -21 -4 -19 19 9 21
24 36 32 61 32 19 0 37 -4 40 -10 3 -5 11 -10 17 -10 6 0 9 2 6 6 -3 3 9 42
28 86 21 51 33 96 32 120 -1 26 5 45 19 61 11 12 24 33 28 47 4 14 26 61 49
104 l41 80 0 175 c1 155 3 184 23 243 12 37 29 74 38 83 14 13 13 15 -7 15
-30 0 -59 28 -59 56 0 25 45 84 65 84 7 0 23 -9 36 -19 20 -16 28 -17 42 -6 9
7 17 15 17 19 0 4 11 22 25 40 20 26 24 43 24 90 -1 31 1 59 3 61 7 7 213 -51
323 -90 55 -20 116 -42 135 -48 29 -11 45 -29 93 -107 59 -98 67 -120 43 -120
-8 0 -18 -14 -22 -32 -16 -75 -55 -125 -89 -112 -8 3 -15 14 -15 23 0 9 -4 22
-9 30 -8 12 -12 12 -26 -2 -9 -10 -25 -17 -35 -17 -24 0 -88 63 -106 104 -12
27 -13 11 -7 -131 l6 -162 54 -56 c30 -31 64 -58 75 -60 11 -3 42 7 69 20 26
14 62 25 78 25 67 0 106 -108 83 -231 -8 -42 -22 -74 -53 -115 -52 -71 -77
-101 -108 -131 -27 -26 -26 -38 21 -158 37 -93 87 -180 98 -168 4 4 15 39 25
76 23 88 49 126 105 147 52 20 56 29 36 68 -9 17 -18 54 -22 84 -6 50 -3 61
36 137 23 46 39 92 37 102 -3 11 -4 19 -2 19 9 0 73 -113 114 -204 l49 -106
-23 -80 c-21 -70 -52 -214 -70 -323 -6 -37 -7 -38 -38 -31 -18 3 -63 18 -102
31 -38 13 -77 27 -87 30 -10 3 -21 -3 -28 -17 -9 -17 -8 -29 8 -60 l19 -39
-24 -6 c-13 -3 -44 -25 -69 -49 -56 -54 -58 -89 -7 -121 22 -13 32 -28 33 -44
0 -32 27 -61 57 -61 13 0 26 -6 29 -14 7 -18 48 -34 94 -38 19 -2 34 -8 33
-14 -1 -6 9 -23 23 -39 22 -26 24 -36 24 -144 0 -64 7 -170 15 -236 8 -65 12
-121 10 -124 -3 -2 -12 2 -21 10 -16 13 -16 12 -6 -8 7 -12 12 -34 12 -50 0
-22 10 -34 50 -60 27 -18 54 -33 59 -33 6 0 13 -17 17 -37 30 -175 82 -387
175 -712 39 -134 69 -245 67 -246 -5 -6 -197 93 -256 132 -31 20 -96 68 -144
106 -81 63 -91 68 -130 65 l-42 -3 48 -35 c26 -19 71 -53 99 -75 74 -58 95
-70 194 -113 49 -21 127 -63 173 -94 l85 -56 64 -198 c77 -242 75 -233 59
-209 -7 11 -22 22 -33 23 -42 7 -285 103 -384 152 -198 97 -470 276 -527 347
-6 7 -19 11 -28 7 -11 -4 -16 -1 -16 10 0 9 -10 27 -22 40 -39 38 -257 237
-383 348 -145 128 -358 345 -442 450 -194 244 -286 441 -338 723 -32 174 -43
1084 -16 1295 30 225 96 463 181 645 22 48 40 89 40 91 0 1 -8 4 -17 6 -10 3
22 10 71 17 60 9 95 10 105 4 19 -12 19 -9 2 -100 -16 -85 -4 -133 33 -133 31
0 37 8 76 84 75 148 129 201 208 205 23 1 22 0 -14 -69z m5402 -10 c-15 -22
-29 -40 -32 -40 -4 0 1 11 10 25 9 14 12 25 7 25 -5 0 0 11 12 25 32 35 34 11
3 -35z m-232 -169 c26 -27 27 -32 15 -48 -12 -16 -12 -17 2 -5 13 10 19 10 29
-3 10 -12 -18 -47 -167 -211 -255 -281 -288 -318 -319 -360 l-28 -37 -86 6
c-47 3 -139 11 -205 18 -141 13 -541 7 -628 -11 -33 -6 -60 -10 -62 -8 -2 2 3
30 11 63 16 70 17 75 6 75 -9 0 -55 -120 -84 -225 -32 -111 -32 -370 0 -485
50 -184 131 -345 239 -475 59 -70 325 -310 548 -494 102 -84 401 -364 444
-414 l23 -27 -59 6 c-127 13 -286 45 -409 84 -236 74 -310 85 -554 84 -200 0
-222 -2 -315 -27 -122 -32 -279 -109 -361 -176 l-61 -50 -12 82 c-31 219 -42
355 -51 675 -5 191 -14 383 -19 427 -6 44 -22 204 -36 355 -32 349 -35 381
-46 375 -15 -10 -68 -190 -93 -317 -14 -68 -32 -184 -41 -258 -26 -223 -42
-259 -122 -273 -38 -7 -176 -69 -246 -109 -26 -15 -49 -28 -50 -28 -1 0 -3 18
-3 40 -2 47 -18 90 -55 146 l-28 42 62 17 c147 41 215 46 311 20 43 -12 24 12
-28 35 l-41 18 43 7 c43 8 58 25 22 25 -11 0 -20 6 -20 14 0 26 93 412 127
531 20 66 51 171 69 233 18 63 38 120 45 129 20 23 124 72 187 88 248 61 694
41 1276 -57 126 -21 191 -28 193 -21 8 23 207 309 263 378 33 40 94 109 136
154 l76 81 37 -29 c20 -16 49 -43 65 -60z m-2432 -43 c-13 -32 -18 -38 -21
-23 -5 29 -61 104 -82 110 -9 3 -22 12 -28 19 -6 7 25 -4 68 -25 l80 -38 -17
-43z m2627 26 c-16 -19 -68 -18 -91 3 -27 24 -23 30 32 43 28 7 53 17 58 24 4
6 8 -3 10 -22 2 -18 -2 -40 -9 -48z m-2219 -222 c22 -34 45 -62 52 -62 7 0 31
25 53 55 55 77 65 54 39 -86 -4 -22 -13 -27 -62 -37 -31 -7 -68 -14 -82 -18
-26 -5 -26 -5 -41 101 -13 93 -14 123 -3 112 2 -2 22 -31 44 -65z m-1920 -84
c46 -82 370 -564 405 -603 31 -35 35 -37 29 -15 -3 14 -12 38 -20 53 -12 25
-11 28 4 23 67 -20 132 -29 226 -30 l110 -1 22 -50 c27 -59 106 -293 128 -382
9 -34 19 -69 22 -76 3 -9 -14 -22 -53 -39 -86 -37 -123 -51 -127 -47 -1 2 -12
29 -24 59 l-22 55 20 90 c22 100 24 125 11 125 -16 0 -62 -120 -86 -227 -46
-202 -58 -322 -57 -560 l1 -221 -72 -7 c-241 -22 -504 -89 -716 -182 -12 -5
-13 39 -8 298 9 431 31 632 101 914 26 103 31 137 24 168 -14 61 -97 225 -151
296 -32 43 -46 69 -41 77 73 102 240 324 245 324 3 0 16 -19 29 -42z m3837
-121 c1 -61 5 -154 9 -205 5 -84 8 -92 25 -87 15 5 21 -4 38 -62 11 -37 22
-80 24 -95 1 -15 14 -39 27 -53 22 -24 23 -26 7 -62 -10 -25 -17 -79 -20 -153
-3 -89 -9 -127 -25 -163 -25 -55 -43 -65 -77 -43 -19 12 -25 26 -26 54 l-1 37
-9 -32 c-11 -39 -50 -67 -78 -58 -26 8 -57 51 -66 93 -19 88 94 124 128 41 11
-29 12 -23 11 63 -1 52 -7 104 -13 115 -8 16 -7 31 4 63 20 57 19 77 -5 85
-23 7 -55 58 -79 125 l-18 51 -7 -138 c-7 -147 -27 -259 -76 -429 l-31 -106
25 -23 c29 -26 34 -71 14 -108 -6 -12 -10 -42 -9 -67 2 -50 -28 -160 -67 -235
-30 -61 -94 -156 -116 -174 -15 -13 -14 -15 6 -25 13 -6 29 -24 37 -40 12 -26
11 -31 -16 -70 -37 -52 -80 -61 -111 -22 l-20 26 -14 -22 c-15 -22 -17 -20
-161 100 -141 118 -146 124 -133 145 14 22 36 112 36 147 0 17 -10 13 -67 -26
-38 -26 -71 -51 -74 -56 -8 -12 -108 71 -174 144 -47 52 -110 148 -87 134 6
-4 23 49 47 146 44 182 44 241 1 303 -23 34 -27 49 -26 105 1 76 -15 278 -22
286 -3 2 -5 -44 -5 -103 0 -61 -7 -141 -16 -183 -8 -41 -18 -109 -22 -150 -3
-41 -9 -88 -12 -104 -3 -19 -2 -26 6 -22 19 12 12 -35 -13 -94 l-24 -54 -17
39 c-72 171 -99 381 -75 590 7 63 17 120 21 127 10 15 490 24 663 11 l109 -8
3 -155 c1 -85 5 -175 9 -199 7 -39 5 -46 -15 -61 -19 -15 -20 -18 -6 -23 13
-5 23 7 43 48 42 85 50 77 64 -67 5 -57 13 -130 17 -163 l7 -60 17 75 c29 123
40 314 28 451 -5 67 -13 125 -16 130 -3 5 6 9 20 9 30 0 75 40 271 238 71 73
129 132 130 132 0 0 1 -51 2 -113z m-5179 61 c21 -21 13 -46 -26 -88 -42 -43
-62 -49 -86 -24 -24 24 -19 45 21 86 38 39 69 48 91 26z m1060 -109 c19 -32
20 -38 7 -55 -14 -18 -14 -18 -15 9 0 15 -7 44 -16 65 -17 42 -8 34 24 -19z
m3666 -205 c15 -6 15 -8 -1 -19 -13 -9 -22 -10 -30 -3 -27 22 -7 36 31 22z
m-4876 -56 c28 -28 1 -98 -36 -98 -18 0 -62 39 -62 55 0 6 7 21 16 33 17 24
62 30 82 10z m3232 -409 c-21 -46 -40 -74 -40 -59 0 8 10 65 22 125 l23 110 3
-76 c1 -42 -2 -87 -8 -100z m35 -269 c9 -74 19 -189 22 -256 l6 -120 -54 -24
c-69 -29 -159 -36 -222 -17 -36 12 -65 13 -120 7 -39 -5 -137 -14 -217 -20
-83 -7 -156 -18 -172 -26 -46 -24 -44 -16 3 15 25 15 55 41 67 56 l21 27 25
-29 24 -28 54 19 c103 36 332 147 360 173 32 30 65 112 79 193 17 100 31 152
38 141 10 -15 51 15 51 37 1 14 2 15 9 2 5 -8 16 -76 26 -150z m-2125 17 c41
-20 85 -37 98 -37 21 0 23 -4 20 -42 -2 -35 -9 -46 -36 -65 -18 -12 -38 -24
-45 -26 -7 -2 -9 -8 -5 -12 4 -4 24 2 44 14 l37 22 -7 -57 c-8 -72 -12 -78
-39 -59 -12 8 -29 15 -39 15 -9 0 -33 9 -52 21 -29 17 -35 25 -30 44 4 17 -1
27 -17 39 -26 18 -74 21 -84 6 -3 -6 4 -10 17 -10 14 0 33 -7 44 -15 19 -15
19 -15 0 -30 -38 -29 -117 -8 -103 27 8 21 135 109 142 98 3 -4 -7 -18 -21
-29 -15 -12 -22 -21 -17 -21 14 0 83 66 83 79 0 6 8 8 18 5 9 -4 2 3 -16 15
-18 12 -37 21 -42 21 -19 0 -10 -27 13 -38 17 -8 18 -11 5 -11 -26 -1 -58 35
-58 65 0 14 3 24 8 22 4 -2 41 -20 82 -41z m1058 -61 c8 -30 18 -45 32 -49 30
-8 26 -35 -5 -29 -21 4 -27 -1 -40 -32 -9 -20 -13 -47 -9 -60 5 -21 3 -24 -16
-19 -18 5 -21 11 -17 37 3 17 11 68 18 114 7 45 15 82 19 82 3 0 11 -20 18
-44z m244 -78 c-4 -4 -38 -8 -76 -9 -57 -2 -71 1 -83 16 -12 18 -9 20 37 32
28 7 63 19 78 27 26 13 27 13 39 -22 7 -20 9 -40 5 -44z m95 15 c15 -10 22
-22 18 -32 -3 -8 -3 -12 1 -8 10 10 66 -94 59 -111 -2 -7 0 -10 5 -7 6 3 10 2
10 -3 0 -5 -31 -39 -69 -74 -46 -44 -84 -71 -117 -82 -52 -18 -154 -22 -154
-6 0 6 7 10 16 10 34 0 5 25 -32 28 -21 2 -43 8 -49 13 -7 7 -2 8 15 4 15 -3
33 0 45 9 18 13 17 15 -24 27 -49 14 -82 50 -74 80 5 18 7 18 23 4 19 -17 56
-20 65 -5 3 5 -11 17 -32 27 -29 14 -39 25 -41 46 -6 50 2 58 40 39 43 -22
199 -23 242 -1 36 17 49 45 17 36 -15 -4 -25 1 -32 15 -10 19 -9 20 16 14 15
-4 38 -14 52 -23z m-1432 -125 c17 -16 -34 -50 -64 -43 -42 11 -53 46 -17 51
10 1 20 5 24 8 7 8 43 -3 57 -16z m95 -56 c0 -27 -20 -42 -54 -42 -52 0 -62
13 -32 43 14 14 26 31 26 37 0 6 12 4 30 -5 17 -9 30 -23 30 -33z m963 8 c-7
-25 22 -98 50 -127 l20 -23 -58 0 -58 0 7 61 c3 34 6 73 6 85 0 17 6 24 19 24
14 0 18 -5 14 -20z m-927 -66 c-3 -8 -10 -13 -16 -9 -6 4 -5 13 3 26 13 21 23
8 13 -17z m1416 0 c5 -43 -8 -54 -23 -20 -9 20 -9 29 1 41 17 20 17 20 22 -21z
m-1427 -45 c11 -16 1 -19 -13 -3 -7 8 -8 14 -3 14 5 0 13 -5 16 -11z m1855
-60 c-12 -8 -9 -9 12 -5 19 5 33 1 46 -12 10 -10 24 -16 30 -14 7 2 17 -10 23
-27 14 -39 61 -46 86 -14 10 13 13 9 19 -23 4 -23 2 -44 -5 -56 -6 -10 -45
-81 -87 -157 -62 -114 -81 -140 -102 -146 -15 -4 -34 -13 -42 -20 -47 -42
-198 -65 -425 -65 -138 1 -190 10 -247 46 -49 31 -93 39 -132 25 -24 -10 -26
-14 -16 -29 7 -9 -27 24 -76 73 -49 50 -84 91 -77 93 7 2 13 26 15 59 l3 55
65 5 c83 5 193 35 292 78 88 39 180 65 230 65 19 0 49 -11 71 -26 43 -29 62
-26 110 16 77 67 120 89 172 90 38 0 46 -3 35 -11z m-779 -24 l34 -14 -50 6
c-27 3 -70 9 -95 13 l-45 8 61 1 c35 0 76 -5 95 -14z m989 -288 c-6 -18 -49
-102 -95 -187 -97 -178 -224 -470 -293 -671 -26 -76 -50 -139 -53 -139 -4 0
-12 13 -19 29 -10 26 -6 42 43 162 100 244 193 451 308 689 111 227 114 233
117 191 2 -24 -2 -57 -8 -74z m-1173 -116 c34 -49 131 -176 215 -282 256 -324
286 -365 400 -532 98 -145 109 -166 104 -196 -7 -44 -32 -71 -68 -71 -31 0
-34 6 -13 34 8 11 15 39 15 62 0 37 -12 58 -118 205 -65 90 -201 274 -303 409
-157 207 -294 397 -323 448 -5 8 -1 12 11 12 11 -1 42 -35 80 -89z m-628 -328
c134 -532 361 -1318 480 -1663 39 -112 71 -205 71 -207 0 -2 -6 -3 -13 -3 -17
0 -179 452 -291 805 -115 366 -229 780 -290 1048 -75 335 -71 307 -49 307 17
0 29 -37 92 -287z m-129 234 c-1 -27 -2 -29 -11 -14 -6 10 -20 22 -32 27 -22
8 -22 8 3 18 33 13 40 7 40 -31z m3691 -34 c13 -16 12 -17 -3 -4 -10 7 -18 15
-18 17 0 8 8 3 21 -13z m-2426 -53 c154 -4 281 -8 283 -9 1 -1 2 -6 2 -12 0
-17 -119 -67 -200 -84 -41 -9 -120 -19 -176 -22 l-101 -6 -61 72 c-66 76 -72
87 -44 76 9 -4 143 -11 297 -15z m312 -256 l-94 -219 -49 -14 c-27 -7 -52 -18
-55 -23 -3 -5 -28 21 -55 59 -27 37 -86 115 -132 173 -47 58 -88 110 -93 115
-5 7 5 11 29 11 76 0 524 98 531 116 1 5 5 7 8 5 2 -3 -38 -103 -90 -223z
m1261 74 c34 -83 60 -153 57 -156 -2 -3 -13 16 -24 41 -27 63 -109 147 -144
147 -64 0 -161 -142 -207 -304 -11 -38 -21 -69 -22 -70 -2 0 -28 -14 -58 -30
-226 -119 -401 -204 -430 -208 -41 -7 -66 4 -75 32 -6 18 -12 19 -59 14 -93
-11 -96 39 -9 128 46 47 46 48 28 68 -14 16 -20 17 -27 8 -20 -32 -5 9 27 72
l35 70 44 0 c29 0 52 7 67 20 l24 20 -35 -6 c-19 -3 -47 -10 -62 -14 -16 -5
-28 -7 -28 -4 0 3 17 36 38 74 35 67 52 85 52 58 1 -43 18 -39 134 31 189 113
333 156 547 160 l66 1 61 -152z m84 0 c43 -84 100 -195 128 -247 27 -52 48
-96 47 -98 -2 -1 -33 28 -70 65 -61 62 -71 78 -132 222 -36 85 -72 167 -80
183 -13 25 -12 27 8 27 19 0 35 -26 99 -152z m233 -64 c76 -201 179 -444 226
-534 36 -68 37 -110 4 -167 -20 -33 -32 -43 -51 -43 -14 0 -87 33 -162 74 -75
40 -179 94 -231 120 -51 26 -91 49 -88 52 8 9 241 -73 326 -115 47 -23 95 -41
107 -41 36 0 64 31 66 70 1 34 -15 78 -200 535 -94 236 -99 249 -81 243 7 -2
45 -90 84 -194z m51 165 c24 -6 47 -15 50 -20 5 -9 -56 -129 -66 -129 -7 0
-60 131 -60 148 0 15 18 15 76 1z m-1282 -204 c-242 -441 -486 -1037 -559
-1368 -10 -43 -23 -81 -29 -83 -7 -3 -30 0 -51 5 -40 9 -40 9 -8 10 25 1 34 6
38 24 2 12 16 76 31 142 14 66 33 136 41 155 8 19 32 82 52 140 21 58 70 174
110 258 39 85 71 155 71 157 0 6 163 336 233 471 65 126 140 249 145 236 1 -4
-32 -71 -74 -147z m-1469 129 c69 -17 140 -55 280 -149 157 -106 410 -303 401
-313 -3 -2 -58 39 -123 90 -292 232 -482 344 -603 354 -85 7 -100 12 -80 24
22 14 58 12 125 -6z m-48 -147 c13 -61 26 -123 29 -136 6 -19 4 -22 -12 -19
-16 3 -22 24 -41 128 -26 151 -26 151 -10 144 7 -2 22 -53 34 -117z m108 69
c41 -19 116 -62 167 -97 88 -59 330 -241 325 -245 -1 -1 -51 11 -112 27 -134
34 -171 36 -180 10 -6 -19 -12 -18 -123 21 -64 23 -119 43 -121 44 -5 4 -40
223 -41 252 0 12 3 22 6 22 3 0 39 -15 79 -34z m62 -356 c13 -25 28 -71 33
-103 15 -77 17 -375 4 -406 -10 -22 -12 -17 -17 38 -14 134 -144 447 -224 541
-18 21 -33 41 -33 44 0 3 48 -11 108 -32 105 -36 107 -38 129 -82z m-178 -45
c63 -114 106 -221 130 -327 22 -98 34 -198 24 -198 -12 0 -96 133 -141 222
-65 128 -111 300 -112 418 l0 35 25 -30 c13 -16 46 -70 74 -120z m286 33 c54
-21 56 -22 49 -52 -9 -44 -11 -46 -48 -46 -29 0 -33 4 -43 43 -7 23 -15 50
-18 60 -9 21 -8 21 60 -5z m1128 -23 c-3 -9 -8 -14 -10 -11 -3 3 -2 9 2 15 9
16 15 13 8 -4z m-1133 -149 c0 -61 13 -73 107 -94 48 -11 104 -22 123 -25 133
-20 386 -61 388 -63 2 -1 -34 -112 -81 -246 -46 -134 -90 -260 -97 -280 -6
-21 -13 -38 -14 -38 -1 0 -29 26 -62 58 -36 36 -79 66 -108 77 -44 17 -49 17
-81 2 -26 -12 -38 -27 -51 -66 l-18 -49 -19 41 c-10 23 -43 103 -73 178 l-54
136 16 74 c11 52 15 110 12 197 -2 67 0 122 4 122 4 0 8 -11 8 -24z m1403 -66
c-20 -35 -68 -70 -134 -99 -84 -38 -319 -83 -319 -62 0 5 12 36 26 69 l25 59
112 31 c87 24 134 31 210 31 l98 1 -18 -30z m-700 -132 c-15 -18 -68 -159
-128 -338 -29 -85 -70 -198 -92 -250 -36 -86 -39 -97 -25 -112 8 -10 12 -18 8
-18 -14 0 -66 31 -66 39 0 4 13 38 30 74 35 78 93 230 162 422 27 77 54 152
60 168 7 20 17 27 35 27 19 0 23 -3 16 -12z m-745 -249 c10 -43 155 -423 267
-698 19 -47 33 -86 32 -88 -2 -1 -18 -6 -35 -9 -31 -6 -32 -6 -23 18 7 19 1
40 -29 103 -38 82 -116 308 -191 560 -23 77 -44 146 -46 153 -3 6 -1 12 4 12
5 0 15 -23 21 -51z m2362 -39 c-25 -16 -30 -12 -30 22 l0 32 23 -22 c19 -19
20 -24 7 -32z m-130 -9 c0 -5 3 -16 6 -24 3 -9 -3 -16 -15 -20 -23 -6 -24 -3
-15 31 6 21 24 31 24 13z m-116 -82 c-7 -12 -34 -12 -34 0 0 5 -3 17 -7 26 -6
16 -4 16 20 0 15 -9 24 -21 21 -26z m-1566 -386 c29 -11 41 -21 37 -30 -3 -8
-5 -20 -5 -27 0 -7 -6 -20 -13 -30 -12 -17 -16 -17 -52 -2 -63 27 -66 32 -43
72 11 19 23 34 26 34 4 0 26 -7 50 -17z m-573 -340 c39 -8 77 -19 86 -24 8 -4
21 -32 28 -62 13 -61 33 -84 79 -93 40 -8 79 16 84 52 3 23 7 19 41 -38 49
-85 48 -115 -2 -161 -52 -47 -100 -55 -172 -27 -114 45 -194 109 -303 243 -72
90 -85 114 -68 131 10 10 140 -2 227 -21z m231 3 c1 0 4 -32 5 -70 4 -68 3
-69 -22 -76 -36 -10 -42 -5 -68 70 -13 36 -26 70 -28 76 -3 7 15 9 54 6 32 -2
59 -5 59 -6z"/>
<path d="M9327 7348 l-52 -51 55 48 c30 27 57 50 59 52 2 2 1 3 -3 3 -4 0 -31
-23 -59 -52z"/>
<path d="M10835 7325 c32 -15 171 -18 215 -6 23 7 21 8 -15 14 -22 4 -83 6
-135 6 -89 -1 -93 -2 -65 -14z"/>
<path d="M10280 7209 c-72 -26 -78 -34 -25 -34 36 0 50 5 70 28 30 32 28 32
-45 6z"/>
<path d="M10715 7154 c-27 -8 -97 -24 -155 -35 -99 -20 -217 -69 -275 -113
-20 -14 -19 -16 23 -58 23 -25 39 -47 36 -51 -12 -12 2 -8 57 17 30 13 88 34
129 47 41 13 108 45 149 71 40 27 77 48 81 48 3 0 7 20 7 45 0 25 -1 44 -1 44
-1 -1 -23 -8 -51 -15z"/>
<path d="M10174 7122 c-6 -5 -4 -13 8 -24 19 -19 21 -15 10 14 -4 10 -12 14
-18 10z"/>
<path d="M12160 7101 c0 -5 30 -14 68 -21 37 -7 78 -17 91 -22 13 -5 26 -7 28
-4 6 5 -151 56 -173 56 -7 0 -14 -4 -14 -9z"/>
<path d="M12913 6914 c39 -42 47 -71 22 -80 -11 -5 -12 -10 -2 -24 16 -27 -18
-63 -54 -58 -19 3 -26 0 -25 -11 1 -8 -11 -21 -27 -29 l-27 -13 52 -41 c184
-144 317 -316 464 -601 41 -78 74 -135 74 -127 0 10 9 15 23 14 42 -2 65 -15
90 -52 14 -20 40 -53 57 -72 17 -19 41 -55 54 -79 39 -75 36 -31 -4 65 -45
107 -65 191 -56 228 8 34 16 33 59 -9 21 -21 34 -28 30 -18 -24 69 -100 214
-154 298 -90 139 -333 467 -397 536 -46 50 -56 57 -76 50 -26 -10 -78 9 -116
42 -14 12 -8 4 13 -19z"/>
<path d="M9808 6753 c-48 -4 -62 -19 -35 -41 15 -12 46 -1 71 27 11 11 17 20
15 19 -2 -1 -25 -3 -51 -5z"/>
<path d="M10206 6608 c-60 -55 -67 -80 -25 -93 25 -8 26 -80 3 -114 -17 -24
105 59 159 108 32 29 33 38 10 45 -19 7 -80 86 -75 99 6 19 -19 3 -72 -45z"/>
<path d="M9576 6358 c-9 -12 -16 -26 -16 -31 0 -13 29 12 41 35 14 26 -6 23
-25 -4z"/>
<path d="M10811 6269 c-18 -11 -77 -63 -130 -116 -53 -52 -82 -86 -66 -75 17
11 39 29 49 41 22 24 68 28 86 6 7 -8 10 -27 8 -42 l-4 -28 96 -1 c104 -2 198
-29 223 -64 11 -16 19 -18 48 -11 19 5 46 12 60 15 22 5 25 10 21 37 -3 20 0
34 9 40 9 6 -7 9 -43 9 -45 0 -62 5 -84 24 -28 23 -28 24 -10 51 10 15 14 25
8 21 -15 -9 -179 70 -194 93 -16 26 -34 26 -77 0z"/>
<path d="M11195 5150 c-10 -11 -16 -22 -13 -25 3 -3 13 6 22 20 20 30 16 32
-9 5z"/>
<path d="M11069 4706 c7 -8 19 -35 26 -58 l13 -43 7 30 c4 17 12 36 18 43 5 6
7 12 4 12 -2 0 -22 7 -43 16 -34 14 -37 14 -25 0z"/>
<path d="M13937 6404 c-51 -16 -67 -38 -67 -94 0 -27 1 -28 43 -23 59 8 90 24
97 53 22 82 22 80 -2 79 -13 0 -45 -7 -71 -15z"/>
<path d="M11806 6699 c-38 -95 -66 -148 -93 -174 -8 -8 -10 -15 -4 -15 6 0 23
18 37 40 15 22 30 38 34 35 4 -3 7 3 6 12 0 9 5 18 13 21 10 3 12 0 8 -12 -5
-12 -3 -16 5 -13 7 2 12 11 10 18 -2 10 2 9 10 -2 14 -17 112 -43 102 -28 -3
5 0 9 6 9 6 0 8 6 4 13 -4 7 -3 9 2 4 5 -5 9 -14 9 -20 0 -7 9 -11 19 -9 12 2
16 -1 10 -9 -4 -8 -3 -10 5 -5 6 4 18 3 25 -3 8 -7 45 -10 89 -8 41 1 71 -1
66 -4 -6 -3 11 -9 36 -12 26 -4 51 -4 56 -1 5 3 9 2 8 -3 -4 -21 2 -34 12 -28
6 4 21 -3 34 -15 13 -12 32 -20 45 -18 15 2 30 -7 46 -28 l24 -30 -27 -50
c-35 -67 -22 -52 38 43 l50 78 -85 5 c-46 3 -88 8 -92 12 -8 9 -7 114 2 176
l6 42 -53 -35 c-30 -20 -93 -56 -141 -81 -83 -42 -89 -44 -115 -30 -37 19 -57
42 -118 137 l-52 81 -37 -93z"/>
<path d="M11438 6493 c5 -10 24 -48 41 -85 34 -72 52 -94 26 -32 -19 46 -19
68 -1 61 8 -3 22 4 33 16 18 21 18 21 -2 7 -19 -14 -19 -14 -6 3 8 9 16 15 19
12 3 -3 13 1 21 9 9 8 41 16 71 19 30 2 -5 4 -78 5 -123 2 -132 1 -124 -15z"/>
<path d="M11875 6481 c-16 -4 -48 -17 -71 -29 -37 -19 -41 -19 -51 -4 -10 14
-12 5 -14 -43 -1 -33 -4 -73 -8 -90 -6 -27 -10 -30 -39 -27 -17 2 -32 1 -32
-2 0 -2 26 -20 58 -40 32 -19 66 -44 75 -54 17 -18 16 -20 -9 -36 -38 -25 -22
-31 23 -8 78 39 240 61 326 44 61 -12 60 7 -1 26 l-42 14 17 30 c10 16 35 44
56 60 43 35 42 53 -2 20 -35 -26 -41 -17 -41 62 0 52 0 53 -37 65 -49 15 -169
23 -208 12z m179 -44 l38 -12 0 -66 c0 -53 -4 -73 -22 -97 -19 -26 -30 -30
-85 -35 -35 -3 -79 -13 -98 -21 -33 -13 -37 -13 -53 5 -10 11 -32 29 -50 40
-29 18 -32 23 -24 45 6 14 10 45 10 69 0 46 0 46 100 79 28 9 145 4 184 -7z"/>
<path d="M12376 6455 c4 -8 11 -15 16 -15 6 0 5 6 -2 15 -7 8 -14 15 -16 15
-2 0 -1 -7 2 -15z"/>
<path d="M11425 6134 c-22 -13 -44 -25 -50 -27 -5 -2 15 -31 45 -64 30 -33 57
-59 59 -57 2 2 -18 28 -44 58 l-46 55 40 26 c23 14 41 27 41 30 0 6 2 7 -45
-21z"/>
<path d="M12479 6143 c-13 -16 -12 -17 4 -4 9 7 17 15 17 17 0 8 -8 3 -21 -13z"/>
<path d="M11496 5957 c3 -10 9 -15 12 -12 3 3 0 11 -7 18 -10 9 -11 8 -5 -6z"/>
<path d="M11483 5881 c-18 -26 -42 -57 -53 -69 -20 -21 -20 -23 -3 -28 10 -3
31 -11 46 -16 15 -6 30 -8 33 -5 3 3 -11 10 -30 17 -20 6 -36 14 -36 16 0 3
18 32 41 65 22 33 39 62 37 64 -1 2 -18 -18 -35 -44z"/>
<path d="M11542 5700 c0 -19 2 -27 5 -17 2 9 2 25 0 35 -3 9 -5 1 -5 -18z"/>
<path d="M11532 5620 c0 -14 2 -19 5 -12 2 6 2 18 0 25 -3 6 -5 1 -5 -13z"/>
<path d="M13612 6787 c-6 -7 -8 -24 -5 -38 6 -22 7 -22 14 11 9 40 6 46 -9 27z"/>
<path d="M13661 6778 c-15 -24 -9 -34 9 -13 16 19 30 19 44 -1 9 -11 17 -13
36 -5 14 5 23 10 20 10 -3 1 -26 7 -51 15 -43 13 -46 13 -58 -6z"/>
<path d="M13670 6730 c-22 -16 -22 -18 -5 -17 11 1 19 -3 18 -10 -4 -18 16
-16 23 1 3 8 2 22 -3 30 -7 13 -11 12 -33 -4z"/>
<path d="M13868 6714 c4 -20 9 -23 26 -18 23 7 42 22 35 27 -2 2 -18 7 -35 10
-29 5 -31 4 -26 -19z"/>
<path d="M13954 6675 c-10 -8 -32 -15 -49 -16 -24 -1 -26 -3 -7 -6 15 -3 29
-18 40 -44 9 -21 21 -38 26 -36 15 5 35 73 29 96 -6 25 -13 26 -39 6z"/>
<path d="M13861 6610 c-13 -11 -33 -20 -44 -20 -20 0 -20 0 -2 -14 11 -8 23
-12 28 -9 4 2 14 -1 22 -7 13 -10 15 -8 15 13 0 14 7 28 16 31 8 3 12 10 9 16
-9 14 -17 12 -44 -10z"/>
<path d="M13910 6571 c0 -12 5 -21 10 -21 6 0 10 6 10 14 0 8 -4 18 -10 21 -5
3 -10 -3 -10 -14z"/>
<path d="M13945 3966 c-3 -9 -7 -23 -10 -31 -2 -8 -1 -15 4 -15 5 0 11 12 14
28 6 30 0 44 -8 18z"/>
<path d="M13976 5864 c-9 -22 -8 -24 9 -24 8 0 15 9 15 20 0 24 -15 27 -24 4z"/>
<path d="M13935 5850 c-3 -5 1 -10 10 -10 9 0 13 5 10 10 -3 6 -8 10 -10 10
-2 0 -7 -4 -10 -10z"/>
<path d="M13985 5750 c3 -5 11 -10 16 -10 6 0 7 5 4 10 -3 6 -11 10 -16 10 -6
0 -7 -4 -4 -10z"/>
<path d="M13936 5742 c-2 -4 -1 -14 3 -21 6 -9 11 -10 15 -2 4 6 2 11 -4 11
-6 0 -8 5 -5 10 3 6 4 10 1 10 -3 0 -7 -4 -10 -8z"/>
<path d="M14107 5933 c-4 -3 -7 -11 -7 -17 0 -6 5 -5 12 2 6 6 9 14 7 17 -3 3
-9 2 -12 -2z"/>
<path d="M9709 4725 c-36 -79 -36 -95 -3 -125 30 -29 37 -22 55 53 12 51 4
137 -12 137 -6 0 -23 -29 -40 -65z"/>
<path d="M8291 4494 c-1 -20 5 -34 15 -38 31 -12 37 -6 17 17 -11 12 -23 29
-26 37 -3 8 -6 1 -6 -16z"/>
<path d="M8857 4248 c3 -12 11 -43 18 -68 8 -25 17 -74 20 -110 4 -37 21 -96
38 -137 l30 -71 19 24 c11 13 28 24 38 24 18 0 18 2 -2 38 -12 20 -41 58 -64
84 -42 48 -64 106 -64 171 0 21 -7 41 -19 51 -19 17 -19 17 -14 -6z"/>
<path d="M8404 4030 c-10 -10 28 -138 91 -305 15 -38 30 -81 34 -95 14 -44 84
-204 101 -230 8 -14 22 -38 30 -55 13 -27 72 -120 117 -185 51 -75 161 -200
174 -200 4 0 9 9 12 20 3 11 17 25 32 32 23 11 33 9 66 -9 44 -24 44 -24 27
11 -9 22 -8 29 7 46 10 11 25 20 32 20 8 0 13 3 11 8 -46 104 -217 431 -230
440 -10 7 -32 39 -49 70 -30 58 -31 53 -3 -50 8 -32 14 -86 12 -120 -3 -56 -5
-63 -25 -66 -47 -7 -199 125 -267 230 -47 74 -103 220 -116 303 -6 38 -20 83
-30 101 -11 17 -17 34 -13 37 3 4 4 7 2 7 -3 0 -10 -5 -15 -10z"/>
<path d="M9116 3783 c8 -70 -5 -100 -46 -114 l-28 -10 56 -100 c57 -100 71
-118 51 -60 -14 41 -4 97 22 115 23 16 52 11 89 -14 14 -10 41 -22 61 -29 19
-6 51 -27 70 -47 18 -19 52 -46 75 -59 22 -13 56 -41 75 -62 57 -62 63 -66 83
-44 16 17 14 20 -41 54 -32 20 -69 47 -83 61 -14 14 -61 56 -105 93 -116 99
-226 201 -257 241 l-28 35 6 -60z"/>
<path d="M9649 3636 c14 -15 26 -26 28 -26 9 0 -24 40 -37 45 -8 4 -4 -5 9
-19z"/>
<path d="M9306 2676 c3 -8 13 -17 22 -21 13 -5 13 -2 -3 15 -21 24 -26 25 -19
6z"/>
<path d="M13794 5708 l-19 -23 23 19 c21 18 27 26 19 26 -2 0 -12 -10 -23 -22z"/>
<path d="M13695 5598 l-60 -63 63 60 c34 33 62 61 62 62 0 8 -10 -1 -65 -59z"/>
<path d="M13854 5568 l-19 -23 23 19 c21 18 27 26 19 26 -2 0 -12 -10 -23 -22z"/>
<path d="M13585 5478 c-70 -77 -263 -338 -251 -338 2 0 21 24 42 53 102 141
153 208 207 270 32 37 57 67 54 67 -3 0 -26 -24 -52 -52z"/>
<path d="M13689 5383 c-13 -16 -12 -17 4 -4 9 7 17 15 17 17 0 8 -8 3 -21 -13z"/>
<path d="M13505 5178 l-50 -53 53 50 c28 27 52 51 52 52 0 8 -9 -1 -55 -49z"/>
<path d="M12598 5213 c6 -2 18 -2 25 0 6 3 1 5 -13 5 -14 0 -19 -2 -12 -5z"/>
<path d="M12693 5203 c9 -2 23 -2 30 0 6 3 -1 5 -18 5 -16 0 -22 -2 -12 -5z"/>
<path d="M12768 5193 c6 -2 18 -2 25 0 6 3 1 5 -13 5 -14 0 -19 -2 -12 -5z"/>
<path d="M12833 5183 c9 -2 23 -2 30 0 6 3 -1 5 -18 5 -16 0 -22 -2 -12 -5z"/>
<path d="M12893 5173 c9 -2 23 -2 30 0 6 3 -1 5 -18 5 -16 0 -22 -2 -12 -5z"/>
<path d="M12953 5163 c9 -2 23 -2 30 0 6 3 -1 5 -18 5 -16 0 -22 -2 -12 -5z"/>
<path d="M13013 5153 c9 -2 23 -2 30 0 6 3 -1 5 -18 5 -16 0 -22 -2 -12 -5z"/>
<path d="M13085 5140 c17 -4 39 -8 50 -8 16 0 15 2 -5 8 -14 4 -36 8 -50 8
-22 0 -22 -1 5 -8z"/>
<path d="M13205 5115 c28 -7 61 -13 75 -13 14 0 -2 6 -35 14 -76 17 -107 16
-40 -1z"/>
<path d="M12902 5083 c48 -2 129 -2 180 0 51 1 12 3 -87 3 -99 0 -141 -2 -93
-3z"/>
<path d="M12678 5073 c7 -3 16 -2 19 1 4 3 -2 6 -13 5 -11 0 -14 -3 -6 -6z"/>
<path d="M13215 5071 c61 -13 155 -21 124 -12 -14 5 -56 11 -95 14 -48 4 -57
3 -29 -2z"/>
<path d="M13378 5053 c7 -3 16 -2 19 1 4 3 -2 6 -13 5 -11 0 -14 -3 -6 -6z"/>
<path d="M12013 4777 c4 -12 107 -71 150 -86 51 -19 17 8 -69 52 -47 25 -83
40 -81 34z"/>
<path d="M11945 4725 c66 -60 264 -145 341 -145 33 0 4 14 -112 52 -64 21
-140 52 -168 69 -96 60 -102 62 -61 24z"/>
<path d="M12255 4238 c-33 -5 -108 -7 -167 -4 -107 5 -147 -6 -65 -18 116 -18
297 -2 297 25 0 5 -1 8 -2 8 -2 -1 -30 -6 -63 -11z"/>
<path d="M11910 4086 c-23 -13 -20 -14 55 -15 60 0 112 -9 208 -35 168 -47
279 -65 256 -42 -3 3 -81 26 -174 52 -189 52 -302 65 -345 40z"/>
<path d="M12900 4737 c-28 -14 -28 -8 -15 -262 6 -112 4 -156 -9 -219 -20
-100 -21 -96 12 -96 52 1 109 35 133 82 21 40 21 52 17 224 l-5 182 -51 51
c-28 28 -52 51 -54 51 -2 0 -14 -6 -28 -13z"/>
<path d="M9450 4090 c-6 -11 -8 -20 -6 -20 3 0 10 9 16 20 6 11 8 20 6 20 -3
0 -10 -9 -16 -20z"/>
<path d="M10476 2057 c4 -12 30 -17 112 -21 59 -3 150 -9 202 -12 52 -3 91 -2
87 3 -5 4 -77 13 -160 19 -84 6 -173 15 -200 19 -40 6 -46 5 -41 -8z"/>
<path d="M10248 1093 c6 -2 18 -2 25 0 6 3 1 5 -13 5 -14 0 -19 -2 -12 -5z"/>
</g>
</svg>
