<svg xmlns="http://www.w3.org/2000/svg" viewBox="0 0 342.06 225.37"><defs><style>.cls-1{fill:#317873;}.cls-2{fill:#5f9ea0;}.cls-3{fill:#49796b;}.cls-4{fill:#a0d6b4;}.cls-5{fill:silver;}.cls-6{fill:#cfe8e8;opacity:0.78;}.cls-7{fill:#bed3d2;}.cls-8{fill:#a0dade;}.cls-9{fill:#c6d7c4;}.cls-10{fill:#0c5454;opacity:0.25;}.cls-11{fill:#d9cbc0;}.cls-12{fill:#816b46;}.cls-13{fill:#fcfcfc;}.cls-14{fill:#777070;}.cls-15{fill:#fff;}.cls-16{fill:gray;}.cls-17{fill:#b4daef;}.cls-18{fill:#d8cbc3;}.cls-19{fill:#f7dce3;}.cls-20{fill:#b6d0ad;}.cls-21,.cls-22{stroke:#000;stroke-miterlimit:10;stroke-width:0.5px;}.cls-22{fill:#d6dd80;}</style></defs><g id="Lager_2" data-name="Lager 2"><path class="cls-1" d="M28.87,66.1s16.66,63.77,2.89,82.13c0,0,112.55-9.36,115.7-2,0,0-19-45.45-2.85-67.24C144.61,79,69.45,85.43,28.87,66.1Z" transform="translate(-16.35 -12.32)"/><path class="cls-2" d="M46.49,98.54S36.3,163.66,16.35,175c0,0,106.92,36.37,106.88,44.35,0,0,.73-49.25,24.24-62.79C147.47,156.55,76,132.46,46.49,98.54Z" transform="translate(-16.35 -12.32)"/><path class="cls-3" d="M52.85,143s59.67,63,64,71.9c0,0,71.58-38.73,81.88-28.42s-51.53-57.65-51.53-57.65S68.8,150.2,52.85,143Z" transform="translate(-16.35 -12.32)"/><path class="cls-4" d="M53.18,143.28s45.89,32.53,63.77,71.5c0,0,76.17-31.08,90.5-21.9,0,0-31.35-52.56-56.82-69C130.63,136.41,97.05,142.35,53.18,143.28Z" transform="translate(-16.35 -12.32)"/><path class="cls-5" d="M152.27,22.45a6,6,0,0,0-10.86,4.28,5.15,5.15,0,0,0-4.79,6.07,2.64,2.64,0,0,0-.3-.07A3.83,3.83,0,0,0,132,36a3.77,3.77,0,0,0,.16,1.74A3.24,3.24,0,1,0,135,40.27a2.14,2.14,0,0,0,.27.06,3.82,3.82,0,0,0,4.35-3.24,4.36,4.36,0,0,0,0-.51,5.1,5.1,0,0,0,7.22-4.49,6,6,0,0,0,5.45-9.64Z" transform="translate(-16.35 -12.32)"/></g><g id="Lager_1" data-name="Lager 1"><path class="cls-6" d="M223.2,95.55,230,125.27a6.93,6.93,0,0,1,.16,1l.42,5a7.2,7.2,0,0,1-1.51,5c-2.7,3.46-6.91,11-.8,18.93a7.09,7.09,0,0,0,5.56,2.73l3.19,0a7.14,7.14,0,0,0,5.78-2.86c2.69-3.62,5.4-10.46-1.88-19.38a7.25,7.25,0,0,1-1.49-3.2l-7.38-39.39a8.61,8.61,0,0,1,.1-2.86c.07-.5-.48-1.12-3.34-1.31a7,7,0,0,0-3.54.72c-1.63.81-3.76,2.06-3.22,2.86Z" transform="translate(-16.35 -12.32)"/><circle class="cls-7" cx="214.56" cy="126.99" r="1.68"/><path d="M98.18,161.37A7.09,7.09,0,0,0,95,163.66a.32.32,0,0,0,0,.43.31.31,0,0,0,.42,0h0a7.12,7.12,0,0,1,1.34-1.29c.25-.16.51-.32.78-.46s.57-.26.85-.41.14-.55-.14-.51a4.3,4.3,0,0,0-1.79.85,6.57,6.57,0,0,0-1.5,1.43l.52.3a6,6,0,0,1,2.9-2.1c.35-.13.2-.67-.15-.56Z" transform="translate(-16.35 -12.32)"/><path d="M102.22,163.57a4.77,4.77,0,0,1-3.35.52l-.08.52c.71-.06,1.41-.16,2.12-.24a.29.29,0,0,0,.28-.29c0-.15-.13-.32-.28-.29-.74.09-1.46.18-2.19.3a.27.27,0,0,0,0,.51,5.77,5.77,0,0,0,3.73-.65.22.22,0,0,0,0-.31A.22.22,0,0,0,102.22,163.57Z" transform="translate(-16.35 -12.32)"/><path d="M136.08,148.25h.65a.36.36,0,0,0,.23-.09.34.34,0,0,0,0-.48.32.32,0,0,0-.23-.09h-.65a.29.29,0,0,0-.23.09.33.33,0,0,0,.23.57Z" transform="translate(-16.35 -12.32)"/><path class="cls-8" d="M158.6,161l-3.43-5.56c-7.77-4-15.24-4.75-21.51-10.84-7.06-6.86-12.08-19.15-16.45-27.95L101.13,87.2c4.87-1.21,10.36-2.38,15.32-1.59,1.86,2.94,4.38,5.36,6.35,8.25,5,7.34,8,15.85,11.65,24s8.19,16.2,15.41,21.4a60,60,0,0,0,12,6.17q7.24,3,14.5,6a22,22,0,0,0-8.06,8.86c-.23.46-1.1,3-1.61,3.08s-3.19,1-3.51.77Z" transform="translate(-16.35 -12.32)"/><path class="cls-8" d="M150,188.28a13.38,13.38,0,0,0-2.53-.06c-.46,0-.4-.9-.75-1.19a1.31,1.31,0,0,1-.32-1.29,3.7,3.7,0,0,1,.66-1.22c1.49-2,.71-4.32,2.48-6.08l2.51.36,2,.07a2.94,2.94,0,0,1,1.28.78c.05.13-.25.25-.31.37-.89,2.56-1.79,4.8-1.79,7.53,0,.25.7,2.2.53,2.38s-1.26-.74-1.63-.9A20.76,20.76,0,0,0,150,188.28Z" transform="translate(-16.35 -12.32)"/><path class="cls-9" d="M146,192a6.9,6.9,0,0,1,1.2-4.08.8.8,0,0,1,.4-.41.68.68,0,0,1,.4,0c1.9.35,4.17,1.58,6,2.15.13.45-.19.16-.41.55a2.1,2.1,0,0,1-.8.71l-4.44,2.69a1.64,1.64,0,0,1-.68.28c-.72.07-1.52-.16-1.64-.89C146,193,146,192.14,146,192Z" transform="translate(-16.35 -12.32)"/><path class="cls-9" d="M222.56,213.63c3.78-4.81,7.61-9.66,12.37-13.49,3.88-3.13,8.35-5.55,11.65-9.25s5.37-9.26,3.06-13.68a14.85,14.85,0,0,0-3.58-4.19c-8.17-7.27-18.36-12-28.88-15s-21.4-4.48-32.25-5.9c-1.88-.25-3.9-.48-5.59.37a6.4,6.4,0,0,0-2.92,3.49,12.38,12.38,0,0,0,1,10,30,30,0,0,0,6.63,7.91,109.93,109.93,0,0,0,19.71,14.4c3.47,2,7.08,3.81,10,6.53,4.93,4.59,7.36,11.2,9.62,17.55" transform="translate(-16.35 -12.32)"/><path class="cls-10" d="M225.91,89.93a7.57,7.57,0,0,1,4-.59c1,.12,1.88.33,2,.69.15.78-7.84,3.06-8.64,2.56C223.26,92.59,221,92.09,225.91,89.93Z" transform="translate(-16.35 -12.32)"/><path class="cls-11" d="M178.69,192.71a15.67,15.67,0,0,1,1.15,4.95,6.1,6.1,0,0,0,.37,2.16,1.6,1.6,0,0,0,1.79,1c.9-.27,1.13-1.51,1.08-2.49-.32-6.06-3.1-12.2-8.17-15.54a17.43,17.43,0,0,1,7.59,13.61,3.12,3.12,0,0,0,.42,1.79c.38.49,1.3.59,1.55,0a1.14,1.14,0,0,0,.08-.4,20.56,20.56,0,0,0-1.28-10.18,13,13,0,0,0-7.11-7.17,22.19,22.19,0,0,0-7.67-.89H155a13.2,13.2,0,0,0-1.23,10.19c.11.36.37.11.67.34a2.41,2.41,0,0,0,1.26.32,23,23,0,0,1,6.46,1.41c3.95,1.56,5.21,6.49,8.06,9.6.42.45,1.21.83,1.53.32a1.12,1.12,0,0,0,.09-.65c-.22-2.81-.48-5.76-2.05-8.1-.84-1.27-2.09-2.49-1.95-4,2.62.3,4.83,2.19,6.27,4.41a37.42,37.42,0,0,1,3.17,7.22c.29.74,1,1.64,1.7,1.19a1.26,1.26,0,0,0,.4-.61,11.21,11.21,0,0,0-.54-8.81,18.87,18.87,0,0,0-5.88-6.82A16,16,0,0,1,178.69,192.71Z" transform="translate(-16.35 -12.32)"/><path class="cls-8" d="M214.8,146.45l4.42,1.92a6.82,6.82,0,0,1,1.13.51,2.19,2.19,0,0,1,0,.92c-.18,1.82-.32,2.73-.51,4.54,0,.29,1,1.06.86,1.27a21.41,21.41,0,0,1-2.4,0,11.93,11.93,0,0,1-5.38-.15.78.78,0,0,1-.38-.2.72.72,0,0,1-.1-.43,15.88,15.88,0,0,1,2.05-7.82" transform="translate(-16.35 -12.32)"/><path class="cls-8" d="M339.27,196.24a3.34,3.34,0,0,1-1.54,0c-1.22-.19-2.42-.43-3.58-.7a1,1,0,0,1-.53-.26.93.93,0,0,1-.11-.65,28,28,0,0,1,3.79-11.36A7.67,7.67,0,0,0,342,186c.8.13,1.79.29,2,1.07a1.59,1.59,0,0,1-.06.81,19.81,19.81,0,0,1-3.24,7.17A3.15,3.15,0,0,1,339.27,196.24Z" transform="translate(-16.35 -12.32)"/><path class="cls-8" d="M289,226.49l-.15-.14a21,21,0,0,1-1.41-3.26,1.22,1.22,0,0,1-.05-.82,1.23,1.23,0,0,1,.57-.58,30.48,30.48,0,0,1,7.17-2.88,1.35,1.35,0,0,1,1.59.85c.46,1.24.72,2.62-.09,3.57a3.7,3.7,0,0,1-1.31.9l-4.94,2.53a1.2,1.2,0,0,1-1.07.18A1,1,0,0,1,289,226.49Z" transform="translate(-16.35 -12.32)"/><path class="cls-12" d="M204.82,166.64c5,.75,8.48,3,13.56,3.09s13.15,4.4,18.21,5.26c5.39.88,11.23,6.48,16.41,8.48a2.3,2.3,0,0,1,.57.32l9.32,3.43a29.26,29.26,0,0,1,6.74,3.74c6.83,3.64,4.72,2.69,9.89,6.33,3.68,2.43,9.57,9.62,11,12.18a49.6,49.6,0,0,0,2.88,4.27c.82,1,.48-.27,1.66,5.16.2.92-.26-2.27-.33,1.16l-.05.18c-1.75.22-1.94,1.76-2.79,1.52-3-.11-4.24,1.3-4.5.83-1.88-3.47-4-9.13-9.34-12.74-14.85-10-22.56-18.5-46.43-21.67a28,28,0,0,1-7.22-1.57l-.23-.09c-3-1.33-5.29.14-8.12-1.45-7.66-4.4-19.6-4.79-26.7-10.07a19.19,19.19,0,0,0-5.07-2.29,14.9,14.9,0,0,0-3.46-.77c-3.49-.39-5.74-3.74-8.32-6.06-.77-.7.1-2.35.66-3.23a46.06,46.06,0,0,1,3.79-5.12,2.23,2.23,0,0,0,.5-1.09c.69-3.64,4.14-5.48,7.5-5.74h.25a25.5,25.5,0,0,1,7.85,1.18c11.13,2.88,22.39,5.57,33.82,6.36,4.94.34,9.86.32,14.84.55,25.37,1.17,50,8.82,73.67,18,3.94,1.52,7.91,3.1,12.11,3.68,3.45.46,7.16.29,10.16,2.07h0a2,2,0,0,1,1,2.18,2.76,2.76,0,0,1-.28.72l-3.29,7.78a2.16,2.16,0,0,1-2.77,1.18c-7.06-2.65-14.21-5-21.34-7.39l-18.13-6c-14.28-4.73-28.66-9.5-43.59-11.38-5.27-.66-7.34,1-12.64.8-12.54-.59-20.76-1.94-33.28-1.93" transform="translate(-16.35 -12.32)"/><path class="cls-13" d="M101.65,176.94l44,15.94a17.51,17.51,0,0,1,6.77-12.54C137,172.27,118.74,171.11,102.8,164a8.2,8.2,0,0,1-4.1-3.07,8.73,8.73,0,0,1-.73-4.48l.65-42.2c.53,14.6,6.73,28.44,14.62,40.72a50.63,50.63,0,0,0,9.43,11.55c6.44,5.49,14.79,8.06,22.89,10.49a56.84,56.84,0,0,0,11.51,2.57c5,.41,10-.49,14.92,0s10.23,2.8,12.09,7.41c.78,1.94,1,4.33,2.74,5.52a7,7,0,0,0,2.69.89c8.62,1.64,18.17,4.29,22,12.47a254.23,254.23,0,0,0,8,27.49c3.4-9.58,3.92-19.91,4.28-30.07a37.21,37.21,0,0,0-.64-10.44,19,19,0,0,0-9.5-12c-4.31-2.23-9.27-2.69-14-3.52s-9.76-2.19-13.11-5.69a5.92,5.92,0,0,0-2.41-1.93c-1.65-.5-3.58.79-5.09,0-.8-.44-1.21-1.33-1.79-2a8.61,8.61,0,0,0-3.34-1.92,112.61,112.61,0,0,1-23.56-13c-2.3-1.79-5.26-1.87-7.89-3.15a28.91,28.91,0,0,1-8.57-6.9c-14.26-15.73-20-37.37-32.16-54.79A31.83,31.83,0,0,1,112,86.4a9.39,9.39,0,0,1,3,.4A8.91,8.91,0,0,1,118,88.72c3.74,3.32,6.15,7.84,8.27,12.36,3.35,7.11,6.19,14.46,9.56,21.57,2.25,4.73,4.77,9.4,8.32,13.25,7.17,7.79,17.77,11.38,28.07,13.84a194.86,194.86,0,0,0,39.88,5,16,16,0,0,1,3-9.32c-3.9.44-7.83-.16-11.71-.75l-22.13-3.37c-5-.77-10.28-1.62-14.28-4.73a30.36,30.36,0,0,1-4.63-4.85L126.4,88a39.32,39.32,0,0,0-37.76,6.53,10,10,0,0,0-2.49,2.76,11.21,11.21,0,0,0-1,4.71c-1,21.24-.18,42.52.66,63.77.07,1.79.19,3.68,1.29,5.07a8.51,8.51,0,0,0,4,2.34Z" transform="translate(-16.35 -12.32)"/><path d="M101.59,177.18q22,8.07,44,16A.36.36,0,0,0,146,193a.29.29,0,0,0,0-.09,17.37,17.37,0,0,1,6.66-12.29.37.37,0,0,0,0-.52.27.27,0,0,0-.08-.07c-11.45-5.9-24.19-8.14-36.48-11.64-3.12-.9-6.27-1.89-9.27-3.06-1.51-.57-3-1.17-4.48-1.87a6.75,6.75,0,0,1-3.52-3c-.69-1.5-.52-3.28-.5-4.88l.08-5.33.18-11.11L99,114.26h-.83c.5,12.79,5.23,25,11.6,35.92,3.21,5.53,6.71,11.19,11.4,15.6,4.4,4.15,9.85,6.82,15.54,8.85,3,1.08,6.05,2,9.1,2.92a62.25,62.25,0,0,0,10,2.36c6.57.82,13.43-1.08,19.85.84a13,13,0,0,1,7,4.57c1.43,2,1.46,4.72,3,6.67s4.79,2,7.13,2.55a48.82,48.82,0,0,1,7.57,2.27,23.43,23.43,0,0,1,7.31,4.48,16.19,16.19,0,0,1,2.78,3.45c1,1.65,1.25,3.64,1.71,5.5,2,7.87,4.3,15.63,7,23.29a.42.42,0,0,0,.52.29.41.41,0,0,0,.28-.29c2.5-7.16,3.46-14.7,3.93-22.24.23-3.82.44-7.68.44-11.53a24.32,24.32,0,0,0-1.79-9.9c-2.6-5.86-7.78-9.63-13.89-11.2-6.57-1.68-14-1.42-19.79-5.46-1.34-.94-2.28-2.32-3.58-3.26a4.37,4.37,0,0,0-3.54-.49c-1,.18-2.11.4-3-.38-.59-.54-.94-1.29-1.53-1.84a12,12,0,0,0-3.83-2,108.84,108.84,0,0,1-20-10.75,35.6,35.6,0,0,0-4.53-3,34.2,34.2,0,0,0-4.29-1.42,22.23,22.23,0,0,1-9-6c-6.51-9.76-7.27-12.05-10.35-17.44-6.73-11.65-13.31-23.24-20.47-34.68-.87-1.4-1.76-2.77-2.69-4.12l-.25.61a32,32,0,0,1,7.63-1.5c2.37-.16,4.88-.27,6.94,1.09,3.74,2.46,6.27,6.72,8.24,10.62,4.47,8.72,7.67,18,12.08,26.74a46.19,46.19,0,0,0,7.42,11.13,37.59,37.59,0,0,0,9.67,7.22c7.64,4.09,16.26,6.18,24.71,7.85a202.91,202.91,0,0,0,33.61,3.63.42.42,0,0,0,.42-.4,16,16,0,0,1,2.91-9.12.43.43,0,0,0-.15-.57.54.54,0,0,0-.21-.05c-4.48.46-9-.32-13.34-1L189,142.13c-4.07-.62-8.18-1.12-12.22-1.94-3.75-.77-7.48-2-10.39-4.6-3.11-2.79-5.6-6.38-8.24-9.6l-8.36-10.16-16.86-20.6-4.25-5.17a14.27,14.27,0,0,0-2-2.41,7.57,7.57,0,0,0-2.17-.76,38.22,38.22,0,0,0-9.85-1.57,40.47,40.47,0,0,0-19.55,4.41,28.38,28.38,0,0,0-8.39,6c-2.41,2.78-2,7-2.1,10.44-.33,8.85-.35,17.7-.21,26.55s.45,17.84.8,26.75c.08,2.14.16,4.28.26,6.43a9.34,9.34,0,0,0,1,4.66,6.67,6.67,0,0,0,3.4,2.53c1.79.74,3.71,1.36,5.56,2l6.08,2.21c.49.17.69-.6.22-.78-3.83-1.37-7.71-2.68-11.49-4.17a5.45,5.45,0,0,1-3.74-3.91,35.61,35.61,0,0,1-.41-6.1c-.33-8.54-.65-17.1-.84-25.64s-.23-17.1,0-25.65q.08-3.24.21-6.46a27.79,27.79,0,0,1,.51-5.9c.56-2,2.12-3.34,3.7-4.58A38.62,38.62,0,0,1,94,91.27a39.32,39.32,0,0,1,19.61-5.14,37.33,37.33,0,0,1,10,1.37,11,11,0,0,1,2.32.73,9.67,9.67,0,0,1,2.27,2.6l4.1,5,16.29,19.8,8.06,9.86c2.62,3.19,5.11,6.56,8,9.53,5.15,5.37,12.54,6.1,19.54,7.17l12.59,1.91c4,.61,8,1.35,12,1.72a31.28,31.28,0,0,0,6.27,0l-.35-.62a16.84,16.84,0,0,0-3,9.55l.42-.41a203.15,203.15,0,0,1-30.64-3.08c-8.83-1.61-17.91-3.58-26-7.63a38.27,38.27,0,0,1-10.27-7.24,44.8,44.8,0,0,1-7.78-11.48c-4.48-8.85-7.7-18.27-12.26-27.07-2-4-4.73-8.45-8.66-10.75-2.12-1.27-4.68-1.17-7.05-1a32.87,32.87,0,0,0-7.85,1.53.41.41,0,0,0-.29.5.42.42,0,0,0,0,.1c7.6,10.94,12.65,23.33,18.88,35.05,3,5.8,8.17,10.94,10.52,16.47a47.8,47.8,0,0,0,7,7.34,23.55,23.55,0,0,0,4.19,2.8,24.82,24.82,0,0,0,4.34,1.52c3.44,1,6.16,3.43,9.15,5.33,3.16,2,6.4,3.91,9.74,5.61s6.6,2.91,9.85,4.43a5.78,5.78,0,0,1,2.13,1.53,8.89,8.89,0,0,0,1.39,1.61c1,.78,2.27.54,3.45.34a3.52,3.52,0,0,1,2.83.37,14.81,14.81,0,0,1,1.84,1.79,16.1,16.1,0,0,0,3.64,2.6,31.12,31.12,0,0,0,9.09,2.79c6.88,1.21,14,1.88,19.06,7.29a18.33,18.33,0,0,1,4.48,8.36c.9,3.79.61,7.74.46,11.59-.29,7.69-.75,15.42-2.6,22.91-.45,1.79-1,3.58-1.6,5.37h.8q-3.58-10.23-6.35-20.74c-.75-2.93-1.08-6.19-2.76-8.76a18.17,18.17,0,0,0-5-5c-4.17-2.86-9.19-4.26-14.07-5.28a25.82,25.82,0,0,1-3.89-.9c-1.7-.65-2.28-2.27-2.78-3.88a11.83,11.83,0,0,0-3.67-5.94c-4.55-3.78-10.64-3.88-16.25-3.64a51.18,51.18,0,0,1-10.5-.24,76.93,76.93,0,0,1-10.13-2.64c-6-1.79-12.06-3.72-17.44-7-5.67-3.49-9.75-8.61-13.32-14.14C105.91,142.82,99.63,129,99,114.22a.42.42,0,0,0-.83,0l-.34,22.65L97.7,148.2,97.62,154a35.7,35.7,0,0,0,0,5c.38,2.78,2.38,4.23,4.79,5.33a88.85,88.85,0,0,0,9,3.42c6.4,2.08,13,3.58,19.46,5.32,7.31,1.94,14.58,4.16,21.34,7.63l-.08-.57a18,18,0,0,0-6.87,12.81l.45-.35q-22-7.94-44-15.83C101.42,176.6,101.29,177.07,101.59,177.18Z" transform="translate(-16.35 -12.32)"/><path class="cls-11" d="M226.5,144.81a1.15,1.15,0,0,0-.94,1.13,17.41,17.41,0,0,0,.13,3.54c0,.09.51,1.11.54,1.19l2.8,5.39c.13.56-.68.31-1.2.53a1.6,1.6,0,0,1-.64.17c-1.15,0-2.78.38-3.79.17a6.6,6.6,0,0,1-2.11-.72c-1.73-1.06-2.17-3.4-1.93-5.42a13.85,13.85,0,0,1,.27-1.43,1.49,1.49,0,0,1,1.08-1.05,4,4,0,0,0,1.21-.75,2.1,2.1,0,0,0,.58-.61,4.1,4.1,0,0,0,.55-1.87,21,21,0,0,1,1.79-5.85c.24-.52.62-1.09,1.2-1.07a1.49,1.49,0,0,1,.94.58l1.39,1.45c1.43,1.48,3,3.26,2.77,5.32-.09.89-.74,1.91-1.65,1.85s-1.39-1-1.67-1.79v0A1.1,1.1,0,0,0,226.5,144.81Z" transform="translate(-16.35 -12.32)"/><path class="cls-11" d="M244.21,140.57a1.21,1.21,0,0,1,1.7.18,1.18,1.18,0,0,1,.14.22,2,2,0,0,1-.37,2.06,2.29,2.29,0,0,1,1.84,2.67,2.36,2.36,0,0,1-.76,1.33c-.23.19-.52.38-.55.67a1.07,1.07,0,0,0,.28.66,2.86,2.86,0,0,1-1.07,3.91h0a2.68,2.68,0,0,1,.18,3.3,1.74,1.74,0,0,1-1.36.93,1.46,1.46,0,0,1-1.28-1,3.46,3.46,0,0,1,0-1.75,1.52,1.52,0,0,1-1.51-1.42,3,3,0,0,1,.79-2.1,1.51,1.51,0,0,1-2-.5,2.22,2.22,0,0,1,.08-2.24,4.36,4.36,0,0,1,1.72-1.55,1.61,1.61,0,0,1-2-.06,1.59,1.59,0,0,1-.34-2,3.14,3.14,0,0,1,1.27-1l3.32-1.79" transform="translate(-16.35 -12.32)"/><path d="M245.48,142.62a12.34,12.34,0,0,1-3.77,2.83c-.43.22-.1.92.33.68a13.17,13.17,0,0,0,4-3.11.33.33,0,0,0-.07-.47h0a.35.35,0,0,0-.49.08Z" transform="translate(-16.35 -12.32)"/><path d="M245.82,146.89c-.32.83-1.36,1.08-2.12,1.35a3.38,3.38,0,0,0-2.21,1.6c-.19.41.49.67.68.25.35-.78,1.39-1.06,2.12-1.35a2.86,2.86,0,0,0,1.93-1.7.22.22,0,0,0-.16-.26.21.21,0,0,0-.24.11Z" transform="translate(-16.35 -12.32)"/><path d="M246.08,151.08a11.73,11.73,0,0,0-1.94.68l-.92.39a5.79,5.79,0,0,0-1,.45c-.26.17,0,.62.26.55a5.7,5.7,0,0,0,.92-.37l1-.41a12.31,12.31,0,0,0,1.82-.9c.17-.11.12-.45-.12-.39Z" transform="translate(-16.35 -12.32)"/><path d="M121.46,89.2l13.77,13.06,3.38,3.18,1.79,1.66a10.54,10.54,0,0,1,1.61,1.52c.6.9.08,1.39-.43,2.16s-.9,1.33-1.34,2c-.89,1.33-1.78,2.67-2.69,4a.42.42,0,0,0,.14.56l.11,0,5,1.17c1.79.41,3.58.54,4.34,2.46,1.16,2.77,2,5.71,3.07,8.52,2.09,5.43,4.68,10.67,8.65,15,.37.39,1-.13.74-.57-1.54-2.31-3.1-4.59-4.64-6.89l-.61.63c4.76,2,8.33,6.18,13.32,7.77,2.83.9,5.81,1.13,8.58,2.32a22.44,22.44,0,0,1,6.84,4.68.42.42,0,1,0,.6-.6,21.83,21.83,0,0,0-6.5-4.6c-2.61-1.21-5.38-1.62-8.12-2.31-5.46-1.36-9.21-5.85-14.29-8-.35-.15-.89.19-.6.6,1.54,2.29,3.06,4.61,4.59,6.92l.74-.58c-4.38-4.71-7.05-10.67-9.28-16.63-.54-1.46-1.06-2.93-1.57-4.4a10,10,0,0,0-1.58-3.53c-.9-1-2.39-1.17-3.65-1.46L138,116.64l.25.61,2.88-4.38,1.43-2.2a2.58,2.58,0,0,0,.61-1.4c0-1-1.47-1.88-2.13-2.5l-3.87-3.63Q129.52,96,121.83,88.81c-.27-.26-.68.15-.4.41Z" transform="translate(-16.35 -12.32)"/><path class="cls-13" d="M103,92.28c3.29,8.55.9,18.23,2.69,27.21a2.5,2.5,0,0,0,.36,1,2.67,2.67,0,0,0,2,.75,29.42,29.42,0,0,1,6.69,1.48,1.26,1.26,0,0,1,.75.51c.21.4-.08.9-.35,1.25a29.74,29.74,0,0,0-4.42,9.2.78.78,0,0,0,.35,1l.13.05c8.29,4.78,15,12.16,23.53,16.42,2,1,4.21,1.86,6.21,3" transform="translate(-16.35 -12.32)"/><path d="M102.76,92.36c2.12,5.84,1.79,12.09,1.79,18.19a51.44,51.44,0,0,0,.67,8.67c.18,1,.43,1.79,1.45,2.19,1.35.53,3,.44,4.43.74.66.15,1.32.31,2,.5s2.19.36,1.79,1.48a10.5,10.5,0,0,1-1.19,1.79c-.41.67-.8,1.36-1.16,2.06a29.7,29.7,0,0,0-1.61,3.71c-.3.81-1.12,2.32-.42,3.12a5,5,0,0,0,1.14.74c.65.39,1.28.79,1.92,1.21q1.73,1.16,3.39,2.4c2.41,1.79,4.73,3.68,7.1,5.52a75.46,75.46,0,0,0,7.5,5.28c2.94,1.79,6.18,3,9.18,4.63.49.28.89-.49.45-.77-2.57-1.43-5.33-2.45-7.89-3.87a59.88,59.88,0,0,1-6.9-4.59c-4.44-3.34-8.63-7-13.34-10a8.84,8.84,0,0,1-1.62-1c-.53-.61,0-1.46.19-2.12a29.59,29.59,0,0,1,2-4.58c.63-1.14,1.45-2.17,2.09-3.3a1.28,1.28,0,0,0-.24-1.79,1.14,1.14,0,0,0-.32-.18,17.31,17.31,0,0,0-3.74-1.11c-.72-.15-1.45-.29-2.19-.38s-1.85,0-2.42-.43-.71-1.55-.84-2.31-.21-1.5-.28-2.26c-.15-1.53-.21-3.07-.24-4.6-.12-6.43.3-13-2.07-19.14-.13-.34-.68-.2-.55.15Z" transform="translate(-16.35 -12.32)"/><path class="cls-14" d="M352.48,189l5.93-16.83c-3,1-4.65,4.09-6.86,6.34-1.54,1.57-3.43,2.78-4.94,4.36q-3.33,6-6.27,12.22a2.08,2.08,0,0,0-.3,1.11c.08.71.84,1.13,1.51,1.42q2.44,1,5,1.85a2.38,2.38,0,0,0,1.72.09,2.45,2.45,0,0,0,1-1.52Z" transform="translate(-16.35 -12.32)"/><path class="cls-14" d="M306.06,230.75q7.85-5.22,15.25-11.06a7.4,7.4,0,0,0-4.7-.6l-15.68,1.46-12,5.61a2.22,2.22,0,0,0-1,.72,2.17,2.17,0,0,0,0,1.68,23.11,23.11,0,0,0,3.23,7,4,4,0,0,0,3,2.14,4.34,4.34,0,0,0,2.13-.8C299.62,235,302.84,232.89,306.06,230.75Z" transform="translate(-16.35 -12.32)"/><circle class="cls-15" cx="214.49" cy="127.02" r="1.21"/><path class="cls-7" d="M247,129.31l-10.09,17.21-1-.5,9.18-15.46-.22-.87-1-.64s-.72-.16-1-.23,1.62-2.09,1.62-2.09l.47.62,2.13,1.57Z" transform="translate(-16.35 -12.32)"/><path class="cls-16" d="M220.71,79.24a1.74,1.74,0,0,0,.32,3.35,1.48,1.48,0,0,0,1.31,1.8.35.35,0,0,0-.05.08,1.12,1.12,0,0,0,.55,1.47,1.26,1.26,0,0,0,.5.09.93.93,0,1,0,1.24-.5.84.84,0,0,0-.31-.08.43.43,0,0,0,0-.07,1.11,1.11,0,0,0-.55-1.46l-.14,0a1.47,1.47,0,0,0-.67-2.36,1.76,1.76,0,0,0,0-1.26A1.75,1.75,0,0,0,220.71,79.24Z" transform="translate(-16.35 -12.32)"/><path class="cls-16" d="M229.91,79.46a1.73,1.73,0,0,0-2.22,1.08,1.71,1.71,0,0,0,.32,1.7,1.43,1.43,0,0,0-.51.69,1.5,1.5,0,0,0,.34,1.53l-.08,0a1.11,1.11,0,0,0-.52,1.48,1.22,1.22,0,0,0,.32.39A.93.93,0,0,0,228.4,88a.94.94,0,0,0,.44-1.25,1,1,0,0,0-.19-.26s0,0,.07,0a1.1,1.1,0,0,0,.52-1.47.57.57,0,0,0-.08-.13,1.47,1.47,0,0,0,1-2.24,1.72,1.72,0,0,0,.82-1A1.75,1.75,0,0,0,229.91,79.46Z" transform="translate(-16.35 -12.32)"/><path class="cls-5" d="M229.17,79.58a1.74,1.74,0,0,0-1.9,2.78,1.43,1.43,0,0,0-.51.69,1.48,1.48,0,0,0,.35,1.53l-.09,0a1.1,1.1,0,0,0-.51,1.48,1,1,0,0,0,.31.38.94.94,0,1,0,1.28.42.83.83,0,0,0-.19-.26l.07,0a1.11,1.11,0,0,0,.52-1.48l-.08-.12a1.46,1.46,0,0,0,1.15-1,1.48,1.48,0,0,0-.14-1.27,1.79,1.79,0,0,0,.82-1A1.76,1.76,0,0,0,229.17,79.58Z" transform="translate(-16.35 -12.32)"/><path class="cls-5" d="M221.27,78.73a1.76,1.76,0,0,0-1,2.25,1.74,1.74,0,0,0,1.34,1.1,1.41,1.41,0,0,0,0,.86,1.48,1.48,0,0,0,1.24,1l-.05.07a1.11,1.11,0,0,0,.55,1.47,1.08,1.08,0,0,0,.49.1.93.93,0,1,0,1.25-.5.87.87,0,0,0-.31-.07.43.43,0,0,1,0-.07,1.11,1.11,0,0,0-.55-1.47l-.14-.05a1.47,1.47,0,0,0-.66-2.36,1.74,1.74,0,0,0-2.22-2.29Z" transform="translate(-16.35 -12.32)"/><path class="cls-10" d="M241.54,136.5s0,1.18.72,1S240.82,138.77,241.54,136.5Z" transform="translate(-16.35 -12.32)"/><path class="cls-16" d="M146.82,20.35a6,6,0,0,0-10.13,5.8,5.13,5.13,0,0,0-3.85,6.7c-.11,0-.2,0-.31,0a3.84,3.84,0,0,0-3.84,3.84,3.74,3.74,0,0,0,.41,1.7,3.23,3.23,0,1,0,3.36,3.22,3.3,3.3,0,0,0-.2-1.1l.27,0a3.84,3.84,0,0,0,3.84-3.84,4.23,4.23,0,0,0-.05-.5,5.11,5.11,0,0,0,6.5-5.49,6,6,0,0,0,4-10.32Z" transform="translate(-16.35 -12.32)"/><path class="cls-17" d="M31.88,63.5a55.32,55.32,0,0,0-4,8.16A48,48,0,0,0,49,67c-1.45,3.9-.79,8.21-1.07,12.35A52.56,52.56,0,0,1,45.78,89.9L56.14,83c2.26-1.51,5.37-3,7.49-1.36,1.37,1,1.69,3,1.91,4.65l1.27,9.81A44,44,0,0,0,77.56,85.71L84.43,95l4-10.6A21.54,21.54,0,0,0,95,90.7a390,390,0,0,0-3.9-39.19c-.23-.82-.74-2.74-.74-2.74-.89-3.45-7.27-27.34-9-30.45l-4.67,6.36q-6.16-6.42-12.78-12.36l-.43,11a45.53,45.53,0,0,0-12.91-7.68c-4-1.55-8.49-2.52-12.65-1.39A158.11,158.11,0,0,0,49.44,32.11a35.63,35.63,0,0,0-24,3.59L38.74,48.81A2.27,2.27,0,0,1,39.53,50a2.16,2.16,0,0,1-.39,1.32C36.89,55.49,34.23,59.42,31.88,63.5Z" transform="translate(-16.35 -12.32)"/><path class="cls-18" d="M117.56,69.54a48.47,48.47,0,0,0,.77-5.23,11.52,11.52,0,0,0-.51-5.49A10.62,10.62,0,0,0,114.65,55a1.22,1.22,0,0,1-.47-.6,1.29,1.29,0,0,1,.27-.89,4.91,4.91,0,0,0,.82-2.73,2.38,2.38,0,0,0-1.6-2.2,6.67,6.67,0,0,0-1.48-.05c-1.8,0-3.38-1.17-4.81-2.26-2.2-1.67-4.48-3.39-5.85-5.76a15.31,15.31,0,0,0-1.06-1.79,9.12,9.12,0,0,1-.9-1.15,6.26,6.26,0,0,1-.52-2.25,11,11,0,0,0-2.83-6.37,7.6,7.6,0,0,0-6.41-2.37A10.07,10.07,0,0,0,84,30.29c-5.51-3.11-12.1-4.71-18.27-3.32S54,33.08,52.57,39.25a18.17,18.17,0,0,0,1.49,11.36,37.44,37.44,0,0,0,6.64,9.52A80.15,80.15,0,0,0,73.93,71.78a6.85,6.85,0,0,1,1.79,1.56C77,75.26,76,78,76.91,80.13s3.86,3,6.13,2.22a10.91,10.91,0,0,0,5.29-4.61c-1.06.45-1.22,2-.6,3a6.05,6.05,0,0,0,2.76,2c3.26,1.49,6.83,3,10.31,2.16a2.5,2.5,0,0,1,.9-.14c.78.1,1.2.9,1.64,1.57A7,7,0,0,0,108.6,89a20,20,0,0,0,6-.77,1.38,1.38,0,0,0,1.45-1.31,1.42,1.42,0,0,0-.14-.67c-.4-1.8-.85-3.58-1.36-5.36a2,2,0,0,0-3.07-1.14l-.62.41a25.67,25.67,0,0,0,6.27-10.24" transform="translate(-16.35 -12.32)"/><path class="cls-17" d="M71.15,36.32a10.31,10.31,0,0,0-2.07,2.87c-1,2.21-.89,4.76-.72,7.16.09,1.09.09,2.41-.84,3a2,2,0,0,1-2.43-.57,4.43,4.43,0,0,1-.81-2.54c-.32-4.73,2-9.12,4.61-13.18,1.1-1.11,2.21-2.21,3.3-3.32a25,25,0,0,1,4-3.48,8.16,8.16,0,0,1,5-1.38,2.77,2.77,0,0,1,1.6.54,1.4,1.4,0,0,1,.47,1.53c-.28.7-1.17.89-1.89,1.15a9.14,9.14,0,0,0-2.59,1.72l-5.24,4.4C72.72,34.86,71.89,35.61,71.15,36.32Z" transform="translate(-16.35 -12.32)"/><path d="M71.14,36.31a9.77,9.77,0,0,0-2.53,4.14A16.24,16.24,0,0,0,68.3,46c.07,1.07.3,2.68-.79,3.33-1.79,1.12-3-1.33-3.18-2.74a14.53,14.53,0,0,1,.8-6.1,30.7,30.7,0,0,1,2.76-5.75,27.61,27.61,0,0,1,4.48-5.11,19.26,19.26,0,0,1,4.82-3.89,8,8,0,0,1,3.43-.89,3.63,3.63,0,0,1,1.86.36l.64.63-.4,1.63a2.47,2.47,0,0,1-.89.4,18.4,18.4,0,0,0-5,3.52C75,33,73,34.54,71.19,36.3h0c2-2,4.3-3.75,6.48-5.58A16.49,16.49,0,0,1,81,28.2c.72-.33,1.92-.47,2.27-1.32.59-1.5-1.41-2.1-2.48-2.13A9.29,9.29,0,0,0,75,27.11a33.94,33.94,0,0,0-2.77,2.59c-1,1.05-2.19,2.05-3.14,3.17a23.58,23.58,0,0,0-3.49,6.33,15.8,15.8,0,0,0-1.29,7c.1,1.42.68,3.35,2.43,3.36,2.21,0,1.69-3,1.62-4.38a14.82,14.82,0,0,1,.3-4.6,9.74,9.74,0,0,1,2.55-4.3Z" transform="translate(-16.35 -12.32)"/><path d="M96,47.06a7.89,7.89,0,0,0,4,.12A13.14,13.14,0,0,0,103.84,46a1.53,1.53,0,0,0,1-1.21,2.36,2.36,0,0,0-.67-1.57,7.09,7.09,0,0,0-3-2,9.65,9.65,0,0,0-4.68-.36c-.51.09-.33.8.11.84,1.5.15,3,0,4.42.53a6.22,6.22,0,0,1,1.66,1c.4.34,1.06.89,1.1,1.42,0,.31-.28.4-.52.52s-.63.3-1,.42a14,14,0,0,1-2.09.64,13.54,13.54,0,0,1-2.2.3,16.44,16.44,0,0,0-2.1.13c-.26,0-.19.38,0,.46Z" transform="translate(-16.35 -12.32)"/><path d="M83.27,56.58a2.93,2.93,0,0,0,2.36-.37,7.85,7.85,0,0,0,1.89-1.79q1.68-2,3.18-4.09a4.67,4.67,0,0,0,1.18-2.86A4.69,4.69,0,0,0,90.51,49a42.32,42.32,0,0,1-3.38,4.39,6.16,6.16,0,0,1-2,1.69c-.4.17-.81.26-1.18.46a1.32,1.32,0,0,0-.76,1Z" transform="translate(-16.35 -12.32)"/><path class="cls-19" d="M76.32,54.27a15.31,15.31,0,0,1-1.79-.07,4.19,4.19,0,0,1-2-.52,2.91,2.91,0,0,1-1.11-2.77A7.06,7.06,0,0,1,72.66,48a27.76,27.76,0,0,1,10.91-9.93c1.84-.07,3.43,1.58,3.86,3.38A10.37,10.37,0,0,1,86.79,47a12.14,12.14,0,0,1-2.27,4.38C82.52,53.61,79.38,54.28,76.32,54.27Z" transform="translate(-16.35 -12.32)"/><path d="M76.32,54.05c-1.57-.16-3.79,0-4.32-1.91-.45-1.55.55-3.06,1.36-4.3a27.34,27.34,0,0,1,9.76-9,1.78,1.78,0,0,1,1.93.07,4,4,0,0,1,1.52,1.56,6.72,6.72,0,0,1,.23,4.93A16.87,16.87,0,0,1,85,49.92c-1.87,3.09-5.38,3.81-8.72,3.91a.42.42,0,0,0-.36.48.44.44,0,0,0,.36.37c3.33.07,6.95-.85,9-3.64a15.53,15.53,0,0,0,2.3-5.37,8,8,0,0,0-.13-5.32,4.59,4.59,0,0,0-3.36-2.68,3,3,0,0,0-2,.65c-.83.48-1.64,1-2.42,1.55a27.79,27.79,0,0,0-7.34,7.71c-1,1.54-1.93,3.5-1,5.3s3.18,1.79,4.93,1.61a.22.22,0,0,0,0-.44Z" transform="translate(-16.35 -12.32)"/><path class="cls-19" d="M92,40.62a7.64,7.64,0,0,1-1.79-.24,3.69,3.69,0,0,1-1.31-.55,3.18,3.18,0,0,1-.73-3.75,9.19,9.19,0,0,1,2.65-3.16l4.13-3.58h.17a3.54,3.54,0,0,1,3.21,1.79,7.41,7.41,0,0,1,.9,3.71,5.45,5.45,0,0,1-.35,2.56,4.85,4.85,0,0,1-1.64,1.73A8.94,8.94,0,0,1,92,40.62Z" transform="translate(-16.35 -12.32)"/><path d="M92,40.41c-1.19-.3-2.82-.32-3.46-1.56a3.41,3.41,0,0,1,.36-3.31,13,13,0,0,1,2.9-2.83c1.18-1,2.33-2,3.49-3l-.36.15c3.19-.34,4,3.59,3.76,6-.3,3.2-4,4.23-6.74,4.34A.42.42,0,0,0,92,41h0a8.42,8.42,0,0,0,6.94-2.86,5.51,5.51,0,0,0,.83-3.77,7.25,7.25,0,0,0-1-3.71,4.29,4.29,0,0,0-2.77-1.86,1.91,1.91,0,0,0-1.33.15,18,18,0,0,0-1.79,1.59c-1.09,1-2.21,1.93-3.24,3a6.63,6.63,0,0,0-2,3,3.64,3.64,0,0,0,.71,3.25,4.5,4.5,0,0,0,3.74,1C92.25,40.8,92.23,40.45,92,40.41Z" transform="translate(-16.35 -12.32)"/><path d="M84.52,37.84c-1-1.79-2.89-2.19-4.75-2.23a16.79,16.79,0,0,0-3.17.13,16.1,16.1,0,0,0-3.19,1c-.57.21-.32,1.13.25.89a19.26,19.26,0,0,1,2.69-.89,12.85,12.85,0,0,1,3-.22,8.64,8.64,0,0,1,2.48.24,6.13,6.13,0,0,1,2.14,1.56.34.34,0,0,0,.53-.41Z" transform="translate(-16.35 -12.32)"/><path d="M71.69,52.26c-.28-.19-.58-.35-.9-.56l-.16-.12-.19-.16a4,4,0,0,1-.36-.35l-.17-.18-.09-.11h0c-.1-.13-.2-.29-.3-.44a4.44,4.44,0,0,1-.41-.85.46.46,0,0,0-.57-.33.47.47,0,0,0-.33.56h0a5.37,5.37,0,0,0,1.24,2,5.16,5.16,0,0,0,.89.73,2.93,2.93,0,0,0,1.06.45.32.32,0,0,0,.37-.25.3.3,0,0,0-.13-.32Z" transform="translate(-16.35 -12.32)"/><path d="M111.93,50.28a24.54,24.54,0,0,0-4.25,3c-1.36,1.12-2.69,2.3-3.92,3.52a59.1,59.1,0,0,0-6.88,8c-.33.46.4,1,.78.6,2.32-2.62,4.68-5.23,7.07-7.78a32.92,32.92,0,0,1,7.45-6.27.49.49,0,0,0,.11-.68.48.48,0,0,0-.6-.16,33.9,33.9,0,0,0-7.45,6.27c-2.46,2.62-4.83,5.38-7.29,7.95l.79.6a68.7,68.7,0,0,1,6.79-7.87c1.18-1.17,2.42-2.3,3.68-3.38s2.79-2.13,4.05-3.34a.27.27,0,0,0-.33-.42Z" transform="translate(-16.35 -12.32)"/><path class="cls-20" d="M104,57.58l1.31,2a1,1,0,0,0,.25.26.62.62,0,0,0,.5,0c.81-.23,1.51-1,2.35-.89a1.78,1.78,0,0,1,1,.5c.56.51.9,1.21,1.47,1.73a1.69,1.69,0,0,0,2.06.41,1.65,1.65,0,0,0,.49-1.65c-.1-.59-.37-1.15-.49-1.74a10.56,10.56,0,0,1-.13-1.68,4.39,4.39,0,0,0-.38-1.79,6,6,0,0,0-1.79-2,.76.76,0,0,0-.45-.19.54.54,0,0,0-.27.11,20.58,20.58,0,0,0-5.63,5" transform="translate(-16.35 -12.32)"/><path class="cls-20" d="M110.61,62.72c.38.14.41.67.37,1.08l-.34,3a.39.39,0,0,1-.12.3,2.88,2.88,0,0,1-.68-2.11,8,8,0,0,1,.5-2.21" transform="translate(-16.35 -12.32)"/><path d="M95.41,63.94a2,2,0,0,0,.24-1.09c-.07-.37-.48-.7-.82-.55a.91.91,0,0,0-.41.55,7.91,7.91,0,0,0-.53,2.76,3.67,3.67,0,0,0,.18,1.32,3,3,0,0,0,2.24,1.85,4.64,4.64,0,0,0,3-.45,6.09,6.09,0,0,0,2-1.6c.16-.18.29-.54.06-.65a.45.45,0,0,0-.23,0,3,3,0,0,0-1.62.75,3.6,3.6,0,0,1-.65.58,2.55,2.55,0,0,1-2.19-.16,3.11,3.11,0,0,1-1.74-1.19,2.24,2.24,0,0,1,.43-2.32" transform="translate(-16.35 -12.32)"/><path d="M79.37,41.81h.06v.12h0v0h0v0h0V42h0a.06.06,0,0,0,0,.06h0a.06.06,0,0,0,0,.06h0v0h-.32v0h0v0h0V42h0v-.06h0v-.06h.07V42h0a.08.08,0,0,0,0,.07h0a.41.41,0,0,0-.07.11s.06-.06,0,0l-.05.06H79v-.06h0v0h0v.06h0v0h0c-.08.07.07,0,0,0h0c-.07-.07,0,.07,0,0h0c0-.06,0-.06,0,0h0s.06,0,0,0h0c-.07,0-.08-.05,0,0h0v0h0v0h0v-.07h0v-.11h0v-.06A.06.06,0,0,1,79,42h0l.08-.14H79c.09,0,.07.06,0,0l.06,0c.06.06,0-.05,0,0V42h0a.17.17,0,0,0,0,.1v0h0a.06.06,0,0,0,0,.06v.09l-.06.2.27-.27h-.05l-.09-.09c.08.08,0,0,0,0v-.06h0v.07h0v0h.1c.06,0-.06-.06,0,0h0v0h0v0h0v0l0,0H79v0h0v-.08h0v0c0-.07-.06.07,0,0V42c.05-.06-.09.05,0,0h0c-.1.06-.07,0,0,0h0l.07,0h0l.07.06h0v.07h0v0h.15c-.06,0-.09,0,0,0h-.06c-.06,0,.08.07,0,0h0v0h0v-.13a.33.33,0,0,0,0-.14h0c0-.07-.07.08,0,0h0v.28c0-.13,0-.07,0,0l-.07.1c0,.07.07-.08,0,0v0l0,0h0l-.11.08H78.8c.1.06.07.06,0,0l-.06-.07h0v0h0a1.33,1.33,0,0,1,0-.19v-.08s.06-.09,0,0V42c-.07.12,0,.07,0,0h-.43a.53.53,0,0,1,.15.08h.06c.06,0-.08-.07,0,0s.06,0,.06.06v0h0v-.05h0s.06-.09,0-.06h0c-.09.09,0,.06,0,0h.17l.06,0s0,0,0,.05h0a.43.43,0,0,0-.52-.29.42.42,0,0,0-.3.52.57.57,0,0,0,.42.43.78.78,0,0,0,.56-.08.77.77,0,0,0,.34-.43.81.81,0,0,0-.13-.64,1.48,1.48,0,0,0-.46-.4l-.17-.08a.42.42,0,0,0-.36.07.7.7,0,0,0-.19.15,1.14,1.14,0,0,0,.18,1.6l.1.06a1,1,0,0,0,1.08,0,1.27,1.27,0,0,0,.62-.89,1.2,1.2,0,0,0-.09-.7.78.78,0,0,0-.51-.41,1,1,0,0,0-.66.09,1,1,0,0,0-.41.52,1.09,1.09,0,0,0,.26,1.14.83.83,0,0,0,.7.22.66.66,0,0,0,.5-.48,1.09,1.09,0,0,0-.28-1.07.9.9,0,0,0-1.25-.24.89.89,0,0,0-.39.73.81.81,0,0,0,.47.9,1,1,0,0,0,1-.14.81.81,0,0,0,.3-.89.94.94,0,0,0-.81-.59.77.77,0,0,0-.83.52.88.88,0,0,0,.27.89.91.91,0,0,0,.52.23,1.13,1.13,0,0,0,.26,0,.43.43,0,0,0,.28-.29.38.38,0,0,0,0-.15A1.2,1.2,0,0,0,79,41.16a.89.89,0,0,0-.58-.24.75.75,0,0,0-.62.34,1.37,1.37,0,0,0-.22,1,.82.82,0,0,0,.63.71.77.77,0,0,0,.66-.21.71.71,0,0,0,.24-.56.77.77,0,0,0-.79-.71.75.75,0,0,0-.51.24.71.71,0,0,0-.17.52.89.89,0,0,0,.61.77.91.91,0,0,0,.9-.43,1,1,0,0,0,0-1,.61.61,0,0,0-.66-.25.78.78,0,0,0-.47.34A.9.9,0,0,0,79,43a1,1,0,0,0,.64-.7.81.81,0,0,0-.39-.9.89.89,0,0,0-.89,0,.73.73,0,0,0-.31.9c.19.4.74.36,1.05.15a.82.82,0,0,0,.4-.9.74.74,0,0,0-.74-.52.2.2,0,0,0,0,.4Z" transform="translate(-16.35 -12.32)"/><path d="M93.29,31.8h.24l.06.07h0v.05h0v.13h0v0h0l-.07.08h0v-.06h.11v0h0v.09s.06-.09,0,0a.06.06,0,0,1,0,.06h0l-.09-.09h0v-.15h0v0h0s-.08-.07,0,0h0V32c0,.06,0-.08,0,0h0c.06-.1,0-.07,0,0s-.06,0,0,0h0c.1-.06.08,0,0,0h0v-.12c0-.06,0,.1,0,0l.06-.08c0-.06-.07.06,0,0h0c0-.05-.09,0,0,0h0l-.4-.11h0a1.46,1.46,0,0,1,0,.2v-.12a1,1,0,0,1,0,.24v-.11a.33.33,0,0,1,0,.14h0l0,.06h.16c-.08,0,.06.06,0,0h0v0a.28.28,0,0,1,0-.13v0c0,.08-.06.1,0,0h0c.1-.08-.09,0,0,0h-.07a.17.17,0,0,1,.1,0h0c.09,0-.09-.06,0,0h.06s-.09-.08,0,0h0c-.09-.08,0-.07,0,0h0V32h0v0h0c-.05.08,0-.06,0,0a.08.08,0,0,0,0,0c.08-.09.07-.05,0,0s-.1,0,0,0H93.2c-.06,0,.09.08,0,0s0-.07,0,0a0,0,0,0,0,0-.05h0v-.08h0s-.09.1,0,.05l.06-.05h0a.54.54,0,0,1,.18,0h.07l.05.06c0-.06-.05-.08,0,0h0a.09.09,0,0,1,0,.07v-.11a.76.76,0,0,1,.06.2V32a.81.81,0,0,1,0,.22V32.1a.48.48,0,0,1,0,.17v0h0c.05-.08.07-.06,0,0l-.1.05h-.1v-.07l0,.1a.28.28,0,0,1,0-.13v.12a.38.38,0,0,1,0-.15v.12a.33.33,0,0,1,0-.14l0,.1V32.2c0-.08-.07.07,0,0s-.08,0,0,0l.08,0-.11,0h.07l.1.06c.07,0-.09-.08,0,0h0l.06.09-.06-.1a.33.33,0,0,1,0,.14v-.12a.29.29,0,0,1,0,.13v0c0,.06.09-.08,0,0h-.15l0,.11a.14.14,0,0,1,0-.09v.12a.14.14,0,0,1,0-.09v.52a.17.17,0,0,1,0-.1l0,.11a.22.22,0,0,1,0-.08c-.07.1-.07.07,0,0h0s-.07-.08,0,0h0a.45.45,0,0,0,.63,0,.47.47,0,0,0,0-.64.89.89,0,0,0-1-.13.87.87,0,0,0-.49.89,1,1,0,0,0,1.17.73,1.06,1.06,0,0,0,.47-.27.93.93,0,0,0,.1-1.13,1.06,1.06,0,0,0-1-.55,1,1,0,0,0-.71.27,1,1,0,0,0-.24.6,1,1,0,0,0,.14.54.87.87,0,0,0,.51.39,1,1,0,0,0,1.08-.27,1.16,1.16,0,0,0-.79-1.92,1,1,0,0,0-1,.52A1,1,0,0,0,92.44,33a.91.91,0,0,0,1.08.14.76.76,0,0,0,.39-.45.77.77,0,0,0,0-.61.9.9,0,0,0-1-.47.75.75,0,0,0-.59.81.89.89,0,0,0,.63.81.81.81,0,0,0,.89-.41,1.22,1.22,0,0,0,.08-.9,1.31,1.31,0,0,0-.24-.45.4.4,0,0,0-.4-.11,1.12,1.12,0,0,0-.59.5,1,1,0,0,0-.1.75.91.91,0,0,0,1.1.64l0,0a.79.79,0,0,0,.55-.53.77.77,0,0,0-.18-.74.83.83,0,0,0-.62-.31.75.75,0,0,0-.69.54,1.08,1.08,0,0,0,.6,1.32.83.83,0,0,0,.89-.14,1,1,0,0,0,.34-.74.9.9,0,0,0-.8-1h-.09a.74.74,0,0,0-.43.14.73.73,0,0,0-.24.33A.67.67,0,0,0,94,33a.9.9,0,0,0,.39-.61.65.65,0,0,0,0-.39.73.73,0,0,0-.2-.34.77.77,0,0,0-.62-.24.56.56,0,0,0-.33.1.18.18,0,0,0-.09.21.19.19,0,0,0,.19.15Z" transform="translate(-16.35 -12.32)"/><path class="cls-21" d="M175.63,150.91s-3.14.67-6.88,6.4c-2.66,4.08-2.76,5.4-2.76,5.4l6,2.45L181.09,152l-5.46-1.08" transform="translate(-16.35 -12.32)"/><ellipse class="cls-22" cx="157.39" cy="144.46" rx="3.24" ry="1.62"/></g></svg>